<?xml version="1.0" encoding="utf-8"?>
<!-- Generator: Adobe Illustrator 23.0.0, SVG Export Plug-In . SVG Version: 6.00 Build 0)  -->
<svg version="1.1" id="图层_1" xmlns="http://www.w3.org/2000/svg" xmlns:xlink="http://www.w3.org/1999/xlink" x="0px" y="0px"
	 viewBox="0 0 65 65" style="enable-background:new 0 0 65 65;" xml:space="preserve">
<style type="text/css">
	.st0{fill:#FFFFFF;}
</style>
<path class="st0" d="M35.9,5.4c-0.8,0-1.5,0.7-1.5,1.5V54L3.5,6.1C3.1,5.5,2.4,5.2,1.7,5.4C1,5.6,0.5,6.3,0.5,7v50.5
	C0.5,58.3,1.2,59,2,59c0.8,0,1.5-0.7,1.5-1.5v-46l30.1,46.6c0.4,0.6,1.1,1,1.7,1c0.2,0,0.4,0,0.6-0.1c0.9-0.3,1.5-1.1,1.5-2V6.9
	C37.4,6,36.7,5.4,35.9,5.4L35.9,5.4z M50.6,41.6c-4.9,0-8.9,4-8.9,8.9c0,4.9,4,8.9,8.9,8.9c4.9,0,8.9-4,8.9-8.9
	C59.5,45.6,55.5,41.6,50.6,41.6L50.6,41.6z M50.6,56.4c-3.3,0-5.9-2.7-5.9-5.9c0-3.3,2.7-5.9,5.9-5.9c3.3,0,5.9,2.7,5.9,5.9
	C56.5,53.8,53.9,56.4,50.6,56.4L50.6,56.4z M63,56.1c-0.8,0-1.5,0.7-1.5,1.5v0.3c0,0.8,0.7,1.5,1.5,1.5s1.5-0.7,1.5-1.5v-0.3
	C64.5,56.7,63.8,56.1,63,56.1L63,56.1z M63,56.1"/>
</svg>
