<?xml version="1.0" encoding="utf-8"?>
<!-- Generator: Adobe Illustrator 23.0.0, SVG Export Plug-In . SVG Version: 6.00 Build 0)  -->
<svg version="1.1" id="图层_1" xmlns="http://www.w3.org/2000/svg" xmlns:xlink="http://www.w3.org/1999/xlink" x="0px" y="0px"
	 viewBox="0 0 65 65" style="enable-background:new 0 0 65 65;" xml:space="preserve">
<style type="text/css">
	.st0{fill:#FFFFFF;}
</style>
<g>
	<path class="st0" d="M57.5,6.3c-12.3,0-37.9,0-50.2,0c-4.6,0-6.8,2.3-6.8,6.9v38.6c0,5.2,2.1,7.3,7.3,7.3h30.4v0
		c6.1,0,13.2,0,19.3,0c4.8,0,7-2.2,7-7V13.3C64.5,8.6,62.2,6.3,57.5,6.3z M61.9,52.3c0,3.1-1.1,4.2-4.2,4.2v0H7.3
		c-3.1,0-4.2-1.1-4.2-4.2V13.1c0-3.1,1.1-4.2,4.2-4.2h50.5c3.1,0,4.2,1.1,4.2,4.2V52.3z"/>
	<path class="st0" d="M35.2,46.3c-6.7,0-16.2,0-22.9,0c-0.3,0-0.7,0.1-0.9,0.4c-0.2,0.2-0.4,0.6-0.3,0.9c0,0.7,0.5,1.1,1.2,1.2
		c0.5,0.1,0.9,0.1,1.4,0.1h6.2l0,0h14c1.2,0,0.1,0,1.3-0.1c0.7-0.1,1.2-0.5,1.2-1.3c0-0.3-0.1-0.6-0.3-0.8
		C35.8,46.4,35.5,46.3,35.2,46.3z"/>
	<path class="st0" d="M13.1,40.2L13.1,40.2l21.3,0c0.9,0,1.9,0,1.9-1.2c0-1.3-1-1.4-1.9-1.4c-6.2,0-15.1,0-21.3,0
		c-0.9,0-1.9,0.1-1.9,1.2C11.1,40.1,12.1,40.2,13.1,40.2z"/>
	<path class="st0" d="M53.1,15.4H41.7c-1.5,0-2.8,1.2-2.8,2.8v11.4c0,1.5,1.2,2.8,2.8,2.8h11.4c1.5,0,2.8-1.2,2.8-2.8V18.2
		C55.9,16.7,54.7,15.4,53.1,15.4z M53.4,29c0,0.5-0.4,0.8-0.8,0.8H42.4c-0.5,0-0.8-0.4-0.8-0.8V18.8c0-0.5,0.4-0.8,0.8-0.8h10.2
		c0.5,0,0.8,0.4,0.8,0.8V29z"/>
</g>
</svg>
