<?xml version="1.0" encoding="utf-8"?>
<!-- Generator: Adobe Illustrator 23.0.0, SVG Export Plug-In . SVG Version: 6.00 Build 0)  -->
<svg version="1.1" id="图层_1" xmlns="http://www.w3.org/2000/svg" xmlns:xlink="http://www.w3.org/1999/xlink" x="0px" y="0px"
	 viewBox="0 0 322 260" style="enable-background:new 0 0 322 260;" xml:space="preserve">
<style type="text/css">
	.st0{fill:#999999;}
	.st1{font-family:'MicrosoftYaHei';}
	.st2{font-size:13px;}
	.st3{fill:#ECEDEE;}
	.st4{fill:#C7C7C7;}
	.st5{fill:#FFFFFF;}
	.st6{fill:#DEDEDE;}
</style>
<g>
	<text transform="matrix(1 0 0 1 71.6794 255.9998)" class="st0 st1 st2">暂无数据，请先新建组织架构~</text>
</g>
<g>
	<path class="st3" d="M311.1,170.1l-116.9,47.6c-21.3,8.7-45.2,8.7-66.5,0L10.9,170.1c-13.2-5.4-13.2-24,0-29.4l116.9-47.6
		c21.3-8.7,45.2-8.7,66.5,0l116.9,47.6C324.3,146.1,324.3,164.8,311.1,170.1z"/>
	<g>
		<polygon class="st4" points="48,23.1 48,153.4 124.3,184.2 124.3,53.9 		"/>
		<path class="st5" d="M109.5,148.9l-50.7-20.5c-2.1-0.8-3.4-2.8-3.4-5c0-3.9,3.9-6.5,7.5-5l50.7,20.5c2.1,0.8,3.4,2.8,3.4,5
			C117,147.7,113.1,150.3,109.5,148.9z"/>
		<path class="st5" d="M109.5,118.5L58.8,98c-2.1-0.8-3.4-2.8-3.4-5v0c0-3.9,3.9-6.5,7.5-5l50.7,20.5c2.1,0.8,3.4,2.8,3.4,5
			C117,117.3,113.1,119.9,109.5,118.5z"/>
		<path class="st5" d="M109.5,88.1L58.8,67.6c-2.1-0.8-3.4-2.8-3.4-5c0-3.9,3.9-6.5,7.5-5L113.6,78c2.1,0.8,3.4,2.8,3.4,5
			C117,86.9,113.1,89.5,109.5,88.1z"/>
		<polygon class="st6" points="124.3,184.2 179,162.1 179,31.7 124.3,53.9 		"/>
		<polygon class="st3" points="124.3,53.8 48.1,23.1 102.8,0.9 179,31.7 		"/>
	</g>
	<g>
		<polygon class="st4" points="179,78.9 179,161.7 227.5,181.2 227.5,98.5 		"/>
		<path class="st5" d="M218.1,158.8l-32.2-13c-1.3-0.5-2.2-1.8-2.2-3.2c0-2.5,2.5-4.1,4.8-3.2l32.2,13c1.3,0.5,2.2,1.8,2.2,3.2
			C222.8,158.1,220.3,159.7,218.1,158.8z"/>
		<path class="st5" d="M218.1,139.5l-32.2-13c-1.3-0.5-2.2-1.8-2.2-3.2v0c0-2.5,2.5-4.1,4.8-3.2l32.2,13c1.3,0.5,2.2,1.8,2.2,3.2
			C222.8,138.8,220.3,140.4,218.1,139.5z"/>
		<path class="st5" d="M218.1,120.2l-32.2-13c-1.3-0.5-2.2-1.8-2.2-3.2c0-2.5,2.5-4.1,4.8-3.2l32.2,13c1.3,0.5,2.2,1.8,2.2,3.2
			C222.8,119.4,220.3,121.1,218.1,120.2z"/>
		<polygon class="st6" points="227.5,181.2 262.2,167.2 262.2,84.4 227.5,98.5 		"/>
		<polygon class="st3" points="227.5,98.5 179.1,78.9 213.8,64.9 262.2,84.4 		"/>
	</g>
</g>
</svg>
