<?xml version="1.0" encoding="utf-8"?>
<!-- Generator: Adobe Illustrator 18.0.0, SVG Export Plug-In . SVG Version: 6.00 Build 0)  -->
<!DOCTYPE svg PUBLIC "-//W3C//DTD SVG 1.1//EN" "http://www.w3.org/Graphics/SVG/1.1/DTD/svg11.dtd">
<svg version="1.1" id="图层_1" xmlns="http://www.w3.org/2000/svg" xmlns:xlink="http://www.w3.org/1999/xlink" x="0px" y="0px"
	 viewBox="0 0 55 55" enable-background="new 0 0 55 55" xml:space="preserve">
<g opacity="0.9">
	<path fill="#FFFFFF" d="M3,0.2L26.6,1v4L3,0.2L3,0.2z M52.1,0.2l-23.2,1v4L52.1,0.2L52.1,0.2z M18.8,7.1l-0.8,5.7l8.6,1V6.9h-7.8
		V7.1z M36.7,7.1l0.8,5.7l-8.6,1.1V7.1H36.7L36.7,7.1z M23,17.5l3.6-0.4v38.1L23,46.1v-3.8l-3.4-0.6l-2.3,2.7l-3-1l0.6-4l-3-2.9
		l-3.6,1.5l-2.1-2.5l2.5-3.2l-1.3-3.8l-3.6-0.2l-0.8-3.2L7,23.2l0.8-3.6l-3-2.3l1.3-3l4.2,0.8l2.7-3l-1.5-3.4l2.5-1.7l2.7,1.7
		l-0.8,5.7c-3.6,3.2-5.5,6.9-4.8,12.8c0.8,6.1,5.9,10.7,12,11.4L23,17.5L23,17.5z M51.4,28.2l0.6-3l-4-1.9l-0.8-3.6l3-2.3l-1.1-3
		l-4,0.8l-2.7-3L44,8.6l-2.5-1.7l-2.9,1.9l1.3,6.1c3,3,5.3,7,4.6,12.2c-1,6.1-5.7,10.5-11.6,11.4V17.5l-3.6-0.4v38.1l3.6-9.1v-3.8
		l3.2-0.6l2.3,2.7l2.9-1.1l-0.6-4l3-2.7l3.4,1.5l2.1-2.5l-2.5-3.2l1.3-3.8L51.4,28.2z"/>
</g>
</svg>
