<?xml version="1.0" standalone="no"?>
<!DOCTYPE svg PUBLIC "-//W3C//DTD SVG 1.1//EN" "http://www.w3.org/Graphics/SVG/1.1/DTD/svg11.dtd" >
<!--
2013-9-30: Created.
-->
<svg>
<metadata>
Created by iconfont
</metadata>
<defs>

<font id="iconfont" horiz-adv-x="1024" >
  <font-face
    font-family="iconfont"
    font-weight="500"
    font-stretch="normal"
    units-per-em="1024"
    ascent="896"
    descent="-128"
  />
    <missing-glyph />
    
    <glyph glyph-name="dian" unicode="&#59021;" d="M512 576a192.064 192.064 0 0 0 0-384 192 192 0 0 0 0 384z"  horiz-adv-x="1024" />

    
    <glyph glyph-name="shangchuan" unicode="&#58980;" d="M821.76 416.512c0 0-6.272 206.4-174.4 247.424S398.208 527.808 396.544 522.752C394.88 517.696 386.624 520 386.624 520c-13.44 12.736-72.704 41.984-134.976 4.48-62.208-37.504-39.68-108.736-39.68-108.736S119.744 423.232 72.448 280.832c-47.232-142.528 118.464-182.912 118.464-182.912l278.144 0 0 151.616-55.68 0L408.512 249.536 404.736 249.536l0 0.256c-3.2 0-5.76 2.56-5.76 5.824 0 1.92 1.024 3.584 2.56 4.672l113.984 119.872c1.6 1.792 3.84 3.008 6.464 3.008 2.688 0 5.056-1.344 6.656-3.328l113.152-118.912c0.192-0.128 0.384-0.32 0.576-0.512l1.088-1.152-0.384 0c0.576-1.024 0.96-1.92 0.96-3.136 0-3.584-2.88-6.528-6.528-6.528-0.128 0-0.128 0.128-0.256 0.128l0-0.256L575.936 249.472l0-151.616 252.48 0c0 0 120.384 30.144 131.008 154.432C970.176 376.576 821.76 416.512 821.76 416.512z"  horiz-adv-x="1024" />

    
    <glyph glyph-name="shangchuan1" unicode="&#59017;" d="M938.855808 257.223618l0-270.299169c0-27.41028-22.210861-49.634444-49.621141-49.634444l-754.442728 0c-27.41028 0-49.647747 22.224164-49.647747 49.634444L85.144192 257.223618c0 27.41028 22.224164 49.634444 49.634444 49.634444s49.634444-22.224164 49.634444-49.634444l0-220.664725 655.17384 0L839.58692 257.223618c0 27.41028 22.224164 49.634444 49.634444 49.634444S938.855808 284.633898 938.855808 257.223618zM349.445764 544.182212l112.918769 115.288746 0-429.77837c0-27.411303 22.224164-49.634444 49.634444-49.634444 27.41028 0 49.634444 22.223141 49.634444 49.634444L561.633421 659.465842 674.547073 544.187329c9.722432-9.927093 22.591531-14.904455 35.470863-14.904455 12.524245 0 25.071002 4.716418 34.725896 14.172791 19.583011 19.184945 19.913539 50.608631 0.733711 70.190619L547.478026 815.804517c-9.335622 9.535167-22.116717 14.905478-35.46063 14.905478-13.338796 0-26.120914-5.370311-35.456536-14.900362L278.542924 613.6514c-19.184945-19.588127-18.86465-51.010791 0.722454-70.190619C298.847365 524.275837 330.271052 524.605342 349.445764 544.182212z"  horiz-adv-x="1024" />

    
    <glyph glyph-name="xiazai" unicode="&#59018;" d="M389.842311 526.724609c0 0-54.207599 52.138474-127.760802 9.55461-65.813938-40.649815-54.193273-115.050316-54.193273-115.050316S61.690526 392.826016 61.690526 243.776352c3.281743-148.84091 158.777213-150.336984 158.777213-150.336984l309.799812 0.467651L386.531915 223.831091l79.646991-0.864694 0.013303 157.420309 102.108562 0.694825 0.732687-157.684322 77.813227-1.106194L530.266527 93.439368l262.197654 0c0 0 144.715963-0.148379 165.04087 141.442406 9.680477 154.855904-139.875724 185.378058-139.875724 185.378058s17.017582 229.233891-193.000666 255.367085C444.611705 694.012659 389.842311 526.724609 389.842311 526.724609z"  horiz-adv-x="1024" />

    
    <glyph glyph-name="xiazai1" unicode="&#59019;" d="M924-128H100A100 100 0 0 0 0-28V258a40 40 0 0 0 80 0v-286a20 20 0 0 1 20-20h824a20 20 0 0 1 20 20V258a40 40 0 0 0 80 0v-286a100 100 0 0 0-100-100zM512 108a40 40 0 0 0-28 12L212 392a40 40 0 0 0 57 57l243-244 244 243a40 40 0 0 0 57-57L540 120a40 40 0 0 0-28-12zM512 125a40 40 0 0 0-40 40V856a40 40 0 0 0 80 0v-691a40 40 0 0 0-40-40z"  horiz-adv-x="1024" />

    
    <glyph glyph-name="xingzhuang" unicode="&#59020;" d="M0 8.5504h1126.4V-128H0v136.5504z m872.96 392.8064l-248.1664-233.1136c-15.4112-14.0288-37.1712-23.1936-61.5936-23.1936a89.6 89.6 0 0 0-61.3376 23.296L253.1328 401.2032c-12.9536 12.544-21.248 28.7744-21.248 46.7456 0 38.6048 37.12 69.888 82.8416 69.888l1.8944-0.0512V518.144h163.7376V689.5616c0 38.6048 37.12 69.888 82.8416 69.888 45.7216 0 82.8416-31.232 82.8416-69.888V518.144h160.7168v-0.512c1.6384 0 3.2256 0.2048 4.9152 0.2048 45.7216 0 82.8416-31.3344 82.8416-69.9392 0-17.92-8.2944-34.2016-21.504-46.592zM430.6944 896h265.0112v-409.6H430.6944V896z"  horiz-adv-x="1126" />

    
    <glyph glyph-name="chaxun" unicode="&#59016;" d="M633.949545 219.021667l42.401156 42.401156 282.67437-282.674371-42.401155-42.401155zM413.757564 771.472965c39.177045 0 77.054851-7.695491 112.833886-22.786648 34.479797-14.59145 65.461644-35.479211 92.146009-62.163576 26.684365-26.684365 47.572126-57.666211 62.163576-92.146009 15.091158-35.679094 22.786648-73.656842 22.786648-112.833886s-7.695491-77.054851-22.786648-112.833886C666.209643 334.329104 645.321882 303.347257 618.637517 276.662893c-26.684365-26.684365-57.666211-47.572126-92.146008-62.163576-35.679094-15.091158-73.656842-22.786648-112.833887-22.786649S336.602772 199.408159 300.823736 214.499317c-34.479797 14.59145-65.461644 35.479211-92.146008 62.163576-26.684365 26.684365-47.572126 57.666211-62.163576 92.146008-15.091158 35.679094-22.786648 73.656842-22.786649 112.833886s7.695491 77.054851 22.786649 112.833887c14.59145 34.479797 35.479211 65.461644 62.163576 92.146008s57.666211 47.572126 92.146008 62.163576c35.779036 14.991216 73.756783 22.686707 112.933828 22.686707m0 59.964864c-193.186805 0-349.795042-156.608237-349.795042-349.795042s156.608237-349.795042 349.795042-349.795042 349.795042 156.608237 349.795042 349.795042-156.608237 349.795042-349.795042 349.795042z"  horiz-adv-x="1024" />

    
    <glyph glyph-name="B" unicode="&#59130;" d="M670.208 15.872H220.31872A86.784 86.784 0 0 0 133.632 102.53824V665.46176A86.77888 86.77888 0 0 0 220.31872 752.128h565.4016a86.784 86.784 0 0 0 86.68672-86.67648V376.832a36.096 36.096 0 0 1 72.192 0V665.46176A159.0528 159.0528 0 0 1 785.72032 824.32H220.31872A159.0528 159.0528 0 0 1 61.44 665.46176v-562.92352A159.0528 159.0528 0 0 1 220.31872-56.32H670.208a36.09088 36.09088 0 1 1 0 72.192z m60.21632 550.99392a36.09088 36.09088 0 0 1-36.096 36.09088H232.2944a36.09088 36.09088 0 1 1 0-72.192h462.03392a36.09088 36.09088 0 0 1 36.096 36.10112z m-268.288-152.79104a36.09088 36.09088 0 0 1-36.096 36.09088H232.2944a36.09088 36.09088 0 1 1 0-72.192h193.72032a36.09088 36.09088 0 0 1 36.096 36.096z m489.84576-396.66688l-114.06336 114.04288a198.3744 198.3744 0 1 1-51.5584-50.52416l114.57536-114.55488a36.09088 36.09088 0 1 1 51.0464 51.03616z m-402.64192 228.23424a126.34112 126.34112 0 1 0 126.34112-126.34624 126.464 126.464 0 0 0-126.34112 126.35136z m-317.05088 51.712a36.09088 36.09088 0 1 1 0-72.192h95.05792a36.09088 36.09088 0 1 1 0 72.192H232.2944z"  horiz-adv-x="1024" />

    
    <glyph glyph-name="tixing" unicode="&#58994;" d="M382.3 131.1c20.6-11.9 44.2-15.8 66.2-11 16.5 3.6 30.7 11.8 41.1 23.5l-133.9 9.9c7.3-8.8 16.2-16.4 26.6-22.4zM339 184.8l168.9-12.5 27.9 48.4-194.7 14.4c-6.4-15.6-7.2-33.1-2.1-50.3zM628.5 557.6c-81.6 47.1-186.4 19-233.5-62.6-28.6-49.5-30.6-109.8-5.2-161.2l3.5-7.2-36.2-62.6 237.1-17.5c40.4 12.7 75.2 40 96.9 77.6 47.1 81.6 19 186.4-62.6 233.5z m-102.7-82.7c-11.6-20.1-37.2-26.9-57.3-15.4s-26.9 37.2-15.4 57.3c11.6 20.1 37.2 26.9 57.3 15.4 20.1-11.5 27-37.2 15.4-57.3zM643.5 583.6C547.5 639 424.4 606 369 510c-32.3-55.9-35.7-123.4-9.6-182.1l-40.1-69.5-0.3-0.4c-14.5-25.3-17.3-55.2-8-84.2 9.2-28.6 29.1-53 56.3-68.7 19.5-11.3 41-17.1 62.5-17.1 8.4 0 16.8 0.9 25.1 2.7 29.2 6.3 53.3 23.3 68.1 47.7l0.4 0.4 0.9 1.8 39.9 69.1c63.9 6.8 120.6 43.5 152.9 99.4 55.3 95.9 22.3 219.1-73.6 274.5z m-195-463.5c-22.1-4.8-45.6-0.9-66.2 11-10.3 6-19.3 13.6-26.5 22.4l133.9-9.9c-10.5-11.7-24.7-19.9-41.2-23.5z m59.4 52.2L339 184.8c-5.1 17.3-4.3 34.7 2.1 50.3l194.7-14.4-27.9-48.4z m183.2 151.8c-21.7-37.6-56.4-64.9-96.9-77.6L357.1 264l36.2 62.7-3.5 7.2c-25.3 51.4-23.4 111.6 5.2 161.2 47.1 81.6 151.9 109.7 233.5 62.6 81.6-47.2 109.7-152 62.6-233.6zM468.42516 459.503354a42 42 0 1 1 42 72.746134 42 42 0 1 1-42-72.746134ZM308 85.8c-0.9-5.7-0.6-11.7 0.9-17.4 2.9-10.8 9.8-19.9 19.5-25.5 15.4-8.9 34.3-6.9 47.4 3.7L308 85.8zM406.2 63.7l-98.6 56.9c-7.2 4.1-16.3 1.7-20.5-5.5-9.6-16.6-12.2-36-7.2-54.6 5-18.6 16.9-34.1 33.5-43.7 11.3-6.5 23.6-9.6 35.8-9.6 24.9 0 49.1 12.9 62.4 35.9 2 3.4 2.5 7.5 1.5 11.4-0.9 3.9-3.4 7.2-6.9 9.2z m-77.7-20.8c-9.7 5.6-16.6 14.6-19.5 25.5-1.5 5.8-1.8 11.7-0.9 17.4l67.8-39.2c-13.2-10.6-32-12.7-47.4-3.7zM510.2 687.5c1.8-6.7 7.9-11.1 14.5-11.1 1.3 0 2.6 0.2 3.9 0.5 8 2.1 12.8 10.4 10.6 18.4l-24.5 91.5c-2.1 8-10.4 12.8-18.4 10.6-8-2.1-12.8-10.4-10.6-18.4l24.5-91.5zM877.8 577.1c-2.1 8-10.4 12.7-18.4 10.6l-91.5-24.5c-8-2.1-12.8-10.4-10.6-18.4 1.8-6.7 7.9-11.1 14.5-11.1 1.3 0 2.6 0.2 3.9 0.5l91.5 24.5c8 2.2 12.7 10.4 10.6 18.4zM656.9 638.1c2.4-1.4 4.9-2 7.5-2 5.2 0 10.2 2.7 13 7.5l47.4 82c4.1 7.2 1.7 16.3-5.5 20.5-7.2 4.1-16.3 1.7-20.5-5.5l-47.4-82c-4.1-7.2-1.6-16.4 5.5-20.5z"  horiz-adv-x="1024" />

    
    <glyph glyph-name="shouhuo" unicode="&#58998;" d="M563.694952 696.11952h-73.192853v-51.994923h-34.696611v51.994923h-85.591642c-28.497217 0-53.094815-30.796992-53.094815-59.19422V516.037106l90.191193-81.092081c5.799434-5.499463 11.198906-16.198418 14.798554-16.198418h141.686164c28.497217 0 48.095303 17.898252 48.095303 46.395469V636.9253c-0.09999 28.397227-19.798067 59.194219-48.195293 59.19422z m-73.292843-155.984768v-69.393223h-51.994922v69.393223h-26.797383l55.39459 65.493605 55.594571-65.493605h-32.196856zM125.737721 790.010351m-105.98965 0a105.989649 105.989649 0 1 1 211.979299 0 105.989649 105.989649 0 1 1-211.979299 0ZM386.112294 358.252514c-6.799336-7.299287-15.998438-10.998926-25.29753-10.998925-8.49917 0-16.89835 3.099697-23.597695 9.299091L194.830974 489.739674v-204.08007c0-21.797871-10.298994-40.995996-25.997462-53.694757L246.025974-85.104189c4.499561-18.598184-6.899326-37.296358-25.39752-41.795918-2.699736-0.699932-5.499463-0.999902-8.199199-0.999903-15.598477 0-29.6971 10.598965-33.596719 26.397422l-44.295674 182.182209-24.997559-174.38297c-2.699736-18.898154-20.298018-32.096866-39.096182-29.297139-18.898154 2.699736-31.996875 20.198028-29.297139 39.096182l44.795625 313.269407c-17.698272 12.498779-29.397129 33.096768-29.397129 56.394493V554.233376c0 38.19627 30.996973 69.193243 69.193243 69.193242 8.799141 0 17.19832-1.799824 24.997559-4.799531 6.099404-1.199883 11.898838-3.999609 16.798359-8.49917l216.878821-202.880187c13.998633-13.098721 14.698565-34.996582 1.699834-48.995216zM898.262279 790.010351m-105.989649 0a105.989649 105.989649 0 1 1 211.979299 0 105.989649 105.989649 0 1 1-211.979299 0ZM639.58754 407.147739L856.466361 610.027927c4.899522 4.499561 10.698955 7.299287 16.798359 8.49917 7.799238 2.999707 16.198418 4.799531 24.997559 4.799531 38.19627 0 69.193243-30.996973 69.193243-69.193243v-268.573772c0-23.397715-11.698858-43.895713-29.397129-56.394492L982.954008-84.004296c2.699736-18.898154-10.398984-36.396446-29.297139-39.096182-18.898154-2.699736-36.396446 10.398984-39.096182 29.297138l-24.997558 174.382971-44.295675-182.182209c-3.799629-15.798457-17.998242-26.397422-33.596719-26.397422-2.699736 0-5.499463 0.299971-8.199199 0.999902-18.598184 4.499561-29.997071 23.197735-25.39752 41.795919L855.166488 232.064837c-15.698467 12.69876-25.997461 31.896885-25.997462 53.694757v203.98008L686.782931 356.652671c-6.699346-6.199395-15.198516-9.299092-23.597695-9.299092-9.199102 0-18.498194 3.699639-25.29753 10.998926-12.998731 13.898643-12.298799 35.796504 1.699834 48.795234z"  horiz-adv-x="1024" />

    
    <glyph glyph-name="shenhe" unicode="&#59038;" d="M370.090667 346.368v-50.176h114.688v50.176H370.090667z m114.688-106.922667H370.090667v-31.061333H309.162667V509.44h175.616V558.421333h62.122666V509.44h177.408v-299.264h-60.928v29.269333h-116.48v-117.674666h-62.122666v117.674666z m62.122666 56.746667h116.48v50.176h-116.48v-50.176z m116.48 104.533333v51.370667h-116.48v-51.370667h116.48z m-178.602666 51.370667H370.090667v-51.370667h114.688v51.370667zM769.706667 637.866667v-115.882667h-60.928V581.12H316.928v-62.122667H256V637.866667h221.610667a449.28 449.28 0 0 1-15.530667 34.048L528.384 682.666667c4.778667-13.141333 9.557333-28.074667 14.336-44.8h226.986667z"  horiz-adv-x="1024" />

    
    <glyph glyph-name="shengri" unicode="&#59000;" d="M304 752c17.7 0 32-14.3 32-32v-128c0-17.7-14.3-32-32-32s-32 14.3-32 32V720c0 17.7 14.3 32 32 32zM512 752c17.7 0 32-14.3 32-32v-128c0-17.7-14.3-32-32-32s-32 14.3-32 32V720c0 17.7 14.3 32 32 32zM720 752c17.7 0 32-14.3 32-32v-128c0-17.7-14.3-32-32-32s-32 14.3-32 32V720c0 17.7 14.3 32 32 32zM192 528v-416h640V528H192z m0 64h640c35.3 0 64-28.7 64-64v-416c0-35.3-28.7-64-64-64H192c-35.3 0-64 28.7-64 64V528c0 35.3 28.7 64 64 64z m-64-176h752v-32H128v32zM64 112h896c17.7 0 32-14.3 32-32s-14.3-32-32-32H64c-17.7 0-32 14.3-32 32s14.3 32 32 32z"  horiz-adv-x="1024" />

    
    <glyph glyph-name="shengridangao" unicode="&#59001;" d="M845.04381-27.550476H174.08c-27.794286 0-50.224762 22.430476-50.224762 50.224762V286.47619c0 27.794286 22.430476 50.224762 50.224762 50.224762h670.47619c27.794286 0 50.224762-22.430476 50.224762-50.224762v-263.801904c0.487619-27.794286-22.430476-50.224762-49.737142-50.224762zM174.08 297.691429c-5.851429 0-11.215238-4.87619-11.215238-11.215239v-263.801904c0-5.851429 4.87619-11.215238 11.215238-11.215238h670.47619c5.851429 0 11.215238 4.87619 11.215239 11.215238V286.47619c0 5.851429-4.87619 11.215238-11.215239 11.215239H174.08zM707.047619 297.691429H312.07619c-27.794286 0-50.224762 22.430476-50.224761 50.224761V543.451429C261.851429 570.758095 284.281905 593.67619 312.07619 593.67619h394.971429c27.794286 0 50.224762-22.430476 50.224762-50.224761v-195.535239c0-27.794286-22.430476-50.224762-50.224762-50.224761zM312.07619 554.666667c-5.851429 0-11.215238-4.87619-11.215238-11.215238v-195.535239c0-5.851429 4.87619-11.215238 11.215238-11.215238h394.971429c5.851429 0 11.215238 4.87619 11.215238 11.215238V543.451429c0 5.851429-4.87619 11.215238-11.215238 11.215238H312.07619zM512.487619 569.295238c-10.727619 0-19.504762 8.777143-19.504762 19.504762V679.009524c0 10.727619 8.777143 19.504762 19.504762 19.504762s19.504762-8.777143 19.504762-19.504762V588.8c0-10.727619-8.777143-19.504762-19.504762-19.504762zM510.537143 671.695238l-10.24 6.826667c-26.819048 18.041905-37.059048 46.32381-29.744762 79.969524 4.87619 22.430476 16.091429 39.984762 17.554286 41.935238 1.462857 2.438095 3.413333 4.388571 5.851428 5.851428 3.413333 7.314286 11.702857 12.190476 20.48 10.727619 10.24-1.462857 17.066667-10.24 16.579048-19.992381 1.462857-5.851429 11.702857-19.504762 17.066667-27.306666 4.388571-6.339048 8.777143-12.190476 11.702857-17.554286 5.36381-9.264762 6.826667-19.017143 3.900952-29.257143-4.388571-16.091429-18.529524-31.207619-42.910476-44.860952l-10.24-6.339048z m-0.487619 84.358095c-3.413333-11.702857-4.87619-25.35619 3.413333-36.571428 8.777143 6.826667 12.190476 11.702857 12.678095 13.165714-2.438095 3.900952-5.851429 8.777143-9.752381 14.140952-1.950476 3.413333-4.388571 6.339048-6.339047 9.264762zM875.76381 154.819048c-42.422857 0-64.365714 14.628571-83.870477 27.794285-17.554286 11.702857-31.695238 20.967619-62.415238 20.967619s-44.860952-9.264762-62.415238-20.967619c-19.504762-13.165714-41.447619-27.794286-83.870476-27.794285s-64.365714 14.628571-83.870476 27.794285c-17.554286 11.702857-31.695238 20.967619-62.415238 20.967619-30.72 0-44.860952-9.264762-62.415238-20.967619-19.504762-13.165714-41.447619-27.794286-83.870477-27.794285s-64.365714 14.628571-83.870476 27.794285c-17.554286 11.702857-31.695238 20.967619-62.415238 20.967619-10.727619 0-19.504762 8.777143-19.504762 19.504762s8.777143 19.504762 19.504762 19.504762c42.422857 0 64.365714-14.628571 83.870476-27.794286 17.554286-11.702857 31.695238-20.967619 62.415238-20.967619 30.72 0 44.860952 9.264762 62.415238 20.967619 19.504762 13.165714 41.447619 27.794286 83.870477 27.794286s64.365714-14.628571 83.870476-27.794286c17.554286-11.702857 31.695238-20.967619 62.415238-20.967619 30.72 0 44.860952 9.264762 62.415238 20.967619 19.504762 13.165714 41.447619 27.794286 83.870476 27.794286s64.365714-14.628571 83.870476-27.794286c17.554286-11.702857 31.695238-20.967619 62.415239-20.967619 10.727619 0 19.504762-8.777143 19.504761-19.504761s-8.777143-19.504762-19.504761-19.504762zM737.767619 444.952381c-30.232381 0-45.83619 13.653333-58.514286 24.380952-10.24 8.777143-17.554286 14.628571-33.158095 14.628572-15.60381 0-22.430476-5.851429-33.158095-14.628572-12.678095-10.727619-28.281905-24.380952-58.514286-24.380952s-45.83619 13.653333-58.514286 24.380952c-10.24 8.777143-17.554286 14.628571-33.158095 14.628572-15.60381 0-22.430476-5.851429-33.158095-14.628572-12.678095-10.727619-28.281905-24.380952-58.514286-24.380952s-45.83619 13.653333-58.514285 24.380952c-10.24 8.777143-17.554286 14.628571-33.158096 14.628572-10.727619 0-19.504762 8.777143-19.504762 19.504762s8.777143 19.504762 19.504762 19.504762c30.232381 0 45.83619-13.653333 58.514286-24.380953 10.24-8.777143 17.554286-14.628571 33.158095-14.628571 15.60381 0 22.430476 5.851429 33.158095 14.628571 12.678095 10.727619 28.281905 24.380952 58.514286 24.380953s45.83619-13.653333 58.514286-24.380953c10.24-8.777143 17.554286-14.628571 33.158095-14.628571s22.430476 5.851429 33.158095 14.628571c12.678095 10.727619 28.281905 24.380952 58.514286 24.380953s45.83619-13.653333 58.514286-24.380953c10.24-8.777143 17.554286-14.628571 33.158095-14.628571 10.727619 0 19.504762-8.777143 19.504762-19.504762s-8.777143-19.504762-19.504762-19.504762z"  horiz-adv-x="1024" />

    
    <glyph glyph-name="shouhuoshou--" unicode="&#59002;" d="M578.048 486.4c-1.792-5.376-4.096-10.496-5.888-15.872a621.568 621.568 0 0 1 55.552-140.288 550.912 550.912 0 0 1 45.824 156.16zM512 877.056a491.52 491.52 0 1 1 491.52-491.52A492.032 492.032 0 0 1 512 877.056z m222.72-761.6a372.992 372.992 0 0 0-104.704 91.904 388.096 388.096 0 0 0-115.712-96 307.2 307.2 0 0 1-45.056 56.832 326.4 326.4 0 0 1 121.6 98.304 617.728 617.728 0 0 0-55.552 128 388.864 388.864 0 0 0-30.464-41.984 352 352 0 0 1-42.24 54.272v-294.4h-69.12v150.784c-93.184-32.768-111.872-43.264-125.184-53.76a264.448 264.448 0 0 1-26.88 63.744 43.008 43.008 0 0 1 21.76 41.472v281.6h68.352v-285.184l61.952 18.688V650.24h69.12v-230.4c45.568 56.832 72.448 145.664 86.528 239.872l70.656-11.776c-5.888-32.768-12.288-65.536-20.48-96.512h179.2V486.4H742.4a675.328 675.328 0 0 0-72.448-219.904 334.848 334.848 0 0 1 111.616-92.928 240.128 240.128 0 0 1-47.36-58.368z"  horiz-adv-x="1024" />

    
    <glyph glyph-name="shenhe1" unicode="&#59034;" d="M812 277.5H692c-6.9 4.8-13.4 10.3-19.3 16.4-24.5 25.2-26 46.8-25.5 54.9l0.1 5.6v0.2c0 2.4 3.9 13.9 13.7 30.6 3.7 6.3 7.6 12.5 11.7 18.6 8.9 13.5 18.6 26.7 28.6 39.3 35 41.7 54.2 94.8 54.2 149.4 0 127.8-103 232.8-234.5 239h-17.9c-132.1-6.2-235.7-111.2-235.7-239 0.1-54.9 19.5-108.2 54.6-150.2l1.8-2.3c9.6-12.2 18.7-24.8 27.4-37.7 17.5-26.6 24.6-44.4 24.4-47.6v-5.7c0.5-8-0.9-29.2-24.2-54l-1.4-1.4c-5.5-5.7-11.9-11.2-19.2-16.2H211.2c-79.9 0.1-115.5-31.2-115.5-101.4v-156.2c0-22.1 8.6-42.9 24.3-58.6 15.7-15.5 36.4-24.2 58.4-24.2l666.2 1.4c45.6 0.2 82.5 37.1 82.5 82.7V176c0.1 70.2-35.4 101.6-115.1 101.5zM156.9 19.8V175.9c0 18.9 2.4 27.8 8.9 32.9 7 5.4 19.8 7.6 45.4 7.6h138l7.4 4.8c13.6 8.5 26.2 18.6 37.5 30 39.8 41 43.9 80.9 42.8 101.3 0.8 20.9-9.6 46-34.5 83.9a630.37 630.37 0 0 1-33.7 46c-25.7 31-39.8 70-39.9 110.3 0 95 77.3 173.1 175.9 177.8h14.8c98-4.7 174.7-82.7 174.7-177.7 0-40.4-14.3-79.5-40.2-110.5-11.4-14.3-22.3-29.2-32.4-44.4-4.7-7.1-9.2-14.4-13.5-21.8-16-27.6-22.6-46.6-22-63.6-1.1-20.3 3-60.2 42.7-101.2 11.3-11.5 23.9-21.6 37.5-30.2l7.6-4.8h138.5c49 0 53.6-7.1 53.6-40.3v-154.8c0-5.7-2.2-11.1-6.3-15.2-4-4-9.5-6.3-15.2-6.3l-666.2-1.4c-5.7 0-11.2 2.2-15.2 6.3-3.9 3.9-6.1 9.4-6.2 15.2z m0 0M351 128.4h321.7v-61.3H351z"  horiz-adv-x="1024" />

    
    <glyph glyph-name="MBEfenggechangyongtubiao-tixing" unicode="&#59010;" d="M602.2 352c-1.6 16.9-2.5 34.6-2.5 52.8 0 18 0.8 35.4 2.4 52 7.2 76 30 135.6 58.7 153.6L603 592.6c-20-27.4-35-76.6-40.7-135.8-1.6-16.6-2.4-34.1-2.4-52 0-18.2 0.9-35.9 2.5-52.8 5.7-58.9 20.7-107.8 40.6-135.1l57.8-17.8c-28.6 18-51.3 77.3-58.6 152.9zM560 404.8c0 18 0.8 35.4 2.4 52 5.6 59.2 20.7 108.5 40.7 135.8l-267.5-82.3c-13.4-4.9-24-51.2-24-106s10.5-100.4 24-105.2l267.5-82.3c-19.9 27.3-34.9 76.2-40.6 135.1-1.6 17-2.5 34.7-2.5 52.9zM685.7 615.3c19.6-38.5 32.3-100.3 32.3-170 0-116.7-35.6-211.3-79.4-211.3-2.2 0-4.5 0.3-6.6 0.7 8.5-16.7 18.3-29 28.9-35.6 5.9-3.7 12-5.6 18.3-5.6 43.9 0 79.4 94.6 79.4 211.3-0.1 110.7-32.1 201.5-72.9 210.5zM718 445.3c0 69.7-12.7 131.5-32.3 170-2.2 0.5-4.4 0.7-6.6 0.7-6.3 0-12.4-1.9-18.3-5.6-28.8-18-51.5-77.6-58.7-153.6-1.6-16.6-2.4-34.1-2.4-52 0-18.2 0.9-35.9 2.5-52.8 4.6-47.6 15.3-88.8 29.8-117.2 2.2-0.5 4.4-0.7 6.6-0.7 43.9 0 79.4 94.6 79.4 211.2zM232.5 510.4c-0.4 0-0.9-0.1-1.3-0.1h1.3v0.1zM311.3 404.8c0 56.5 11.1 102.6 25 105.5h-45c-13.9-2.9-25-49-25-105.5 0-58.3 11.8-105.6 26.4-105.6h45c-14.5 0-26.4 47.3-26.4 105.6zM285.2 404.8c0 56.5 11.1 102.6 25 105.5H250.1c-9.2-1.8-17.1-22.4-21.5-52.4-2.3-15.6-3.6-33.7-3.6-53.1 0-19 1.3-36.9 3.5-52.3 4.5-31.9 13.1-53.3 22.9-53.3h60.2c-14.6 0-26.4 47.3-26.4 105.6zM209.7 457.9c-1.2 0.1-2.4 0.1-3.6 0.1-6.7 0-13-1.2-18.9-3.5-2-14.8-3.1-31.7-3.1-49.7 0-17.6 1.1-34.3 3-48.9 5.9-2.3 12.3-3.5 19-3.5 1.2 0 2.3 0.1 3.5 0.1-2.2 15.4-3.5 33.3-3.5 52.3 0 19.4 1.3 37.5 3.6 53.1zM206.1 454.5c-19.8-7.6-33.9-26.8-33.9-49.3 0-22.5 14-41.6 33.8-49.3-1.9 14.6-3 31.2-3 48.9 0 18 1.2 34.9 3.1 49.7zM365.9 132l-30.8 167.2h-35.8l26.6-144.5c5.7-31-18.1-59.5-49.6-59.5h-2.2c9.1-13.9 24.7-22.8 42.2-22.8 31.5 0 55.3 28.6 49.6 59.6zM295.6 95.2c31.5 0 55.3 28.6 49.6 59.5l-26.6 144.5h-66.7L286 113.7c1.2-6.8 3.8-13 7.4-18.5h2.2zM673.1 453.1c2.7-6.3 4.2-13.3 4.2-20.6 0-29.2-23.6-52-52.8-52h-24.3c0.4-9.5 1.1-18.9 2-28h50.3c29.2 0 52.8 22.9 52.8 52 0 21.8-13.3 40.5-32.2 48.6zM677.3 432.4c0 7.3-1.5 14.3-4.2 20.6-6.3 2.7-13.3 4.2-20.6 4.2h-50.4c-1.6-16.6-2.4-34.1-2.4-52 0-8.4 0.2-16.7 0.6-24.8h24.3c29 0 52.7 22.9 52.7 52zM816.1 188.7h-13.6v13.6c0 3.4-2.8 6.2-6.2 6.2s-6.2-2.8-6.2-6.2v-13.6h-13.6c-3.4 0-6.2-2.8-6.2-6.2s2.8-6.2 6.2-6.2h13.6v-13.6c0-3.4 2.8-6.2 6.2-6.2s6.2 2.8 6.2 6.2v13.6h13.6c3.4 0 6.2 2.8 6.2 6.2s-2.8 6.2-6.2 6.2zM197.7 234c-2.4 2.4-6.3 2.4-8.8 0l-9.6-9.6-9.6 9.6c-2.4 2.4-6.3 2.4-8.8 0s-2.4-6.3 0-8.8l9.6-9.6-9.6-9.6c-2.4-2.4-2.4-6.3 0-8.8s6.3-2.4 8.8 0l9.6 9.6 9.6-9.6c2.4-2.4 6.3-2.4 8.8 0 2.4 2.4 2.4 6.3 0 8.8l-9.6 9.6 9.6 9.6c2.4 2.4 2.4 6.3 0 8.8zM782.2 676.7c11.6 0 21 9.4 21 21s-9.4 21-21 21-21-9.4-21-21 9.4-21 21-21z m0 32c6.1 0 11-4.9 11-11s-4.9-11-11-11-11 4.9-11 11 4.9 11 11 11zM837 597c2.3 0 4.2 1.9 4.2 4.2v13.4c0 2.3-1.9 4.2-4.2 4.2s-4.2-1.9-4.2-4.2v-13.4c0-2.4 1.9-4.2 4.2-4.2zM841.1 561.1v13.4c0 2.3-1.9 4.2-4.2 4.2s-4.2-1.9-4.2-4.2v-13.4c0-2.3 1.9-4.2 4.2-4.2s4.2 1.9 4.2 4.2zM849.4 581.3c-1.6 1.6-4.3 1.6-5.9 0-1.6-1.6-1.6-4.3 0-5.9l9.4-9.4c0.8-0.8 1.9-1.2 3-1.2s2.1 0.4 3 1.2c1.6 1.6 1.6 4.3 0 5.9l-9.5 9.4zM821 609.6c-1.6 1.6-4.3 1.6-5.9 0-1.6-1.6-1.6-4.3 0-5.9l9.4-9.4c0.8-0.8 1.9-1.2 3-1.2s2.1 0.4 3 1.2c1.6 1.6 1.6 4.3 0 5.9l-9.5 9.4zM824.6 581.3l-9.4-9.4c-1.6-1.6-1.6-4.3 0-5.9 0.8-0.8 1.9-1.2 3-1.2s2.1 0.4 3 1.2l9.4 9.4c1.6 1.6 1.6 4.3 0 5.9-1.8 1.6-4.4 1.6-6 0zM846.4 593.1c1.1 0 2.1 0.4 3 1.2l9.4 9.4c1.6 1.6 1.6 4.3 0 5.9-1.6 1.6-4.3 1.6-5.9 0l-9.4-9.4c-1.6-1.6-1.6-4.3 0-5.9 0.8-0.8 1.9-1.2 2.9-1.2zM863.7 592h-13.4c-2.3 0-4.2-1.9-4.2-4.2s1.9-4.2 4.2-4.2h13.4c2.3 0 4.2 1.9 4.2 4.2s-1.9 4.2-4.2 4.2zM810.3 583.6h13.4c2.3 0 4.2 1.9 4.2 4.2s-1.9 4.2-4.2 4.2h-13.4c-2.3 0-4.2-1.9-4.2-4.2s1.8-4.2 4.2-4.2zM889.3 646.2m-8.9 0a8.9 8.9 0 1 1 17.8 0 8.9 8.9 0 1 1-17.8 0ZM124.7 279.5m-8.9 0a8.9 8.9 0 1 1 17.8 0 8.9 8.9 0 1 1-17.8 0ZM806.1 315.2m-8.9 0a8.9 8.9 0 1 1 17.8 0 8.9 8.9 0 1 1-17.8 0ZM846.2 235.2m-8.9 0a8.9 8.9 0 1 1 17.8 0 8.9 8.9 0 1 1-17.8 0ZM681.8 747.2m-8.9 0a8.9 8.9 0 1 1 17.8 0 8.9 8.9 0 1 1-17.8 0ZM618.2 539.3c-5.3 1.5-10.8-1.7-12.3-7-0.2-0.8-0.4-1.5-0.6-2.3-0.7-2.6-1.4-5.2-2-7.8-1.3-5.4 2-10.8 7.3-12.1 0.8-0.2 1.6-0.3 2.4-0.3 4.5 0 8.6 3.1 9.7 7.6 0.6 2.5 1.2 5 1.9 7.4 0.2 0.7 0.4 1.5 0.6 2.2 1.4 5.3-1.7 10.8-7 12.3zM679.6 626.1c-7.6 0-15.1-2.2-22.3-6.4l-323.2-99.4h-99.4c-0.6 0.1-1.1 0.1-1.7 0.1-14.7 0-25.2-17.7-31.4-52.6-14.8-1.1-28.5-7.4-39.2-17.9-3.9-3.9-4-10.2-0.1-14.1 3.9-3.9 10.2-4 14.1-0.1 6.2 6.1 13.9 10.1 22.2 11.6v-0.4c-0.1-0.5-0.1-1-0.1-1.5-0.2-1.5-0.3-3.1-0.4-4.6-0.1-0.7-0.1-1.3-0.2-2l-0.3-4.5c0-0.6-0.1-1.2-0.1-1.7-0.1-2.1-0.3-4.1-0.4-6.2v-1c-0.1-1.8-0.2-3.6-0.2-5.3 0-0.7 0-1.4-0.1-2 0-1.5-0.1-3.1-0.1-4.6v-2c0-2.2-0.1-4.3-0.1-6.5 0-2.1 0-4.2 0.1-6.4v-1.9c0-1.5 0.1-3.1 0.1-4.6 0-0.7 0-1.3 0.1-2 0.1-1.8 0.1-3.6 0.2-5.4v-0.9c0.1-2.1 0.2-4.1 0.4-6.1 0-0.6 0.1-1.2 0.1-1.7l0.3-4.5c0.1-0.6 0.1-1.3 0.2-1.9 0.1-1.6 0.3-3.3 0.5-4.9 0-0.4 0.1-0.7 0.1-1.1v-0.4c-19.8 3.7-34.9 21.2-34.9 42.1 0 4.6 0.7 9.2 2.2 13.5 1.7 5.2-1.1 10.9-6.3 12.6-5.2 1.7-10.9-1.1-12.6-6.3-2.1-6.4-3.2-13.1-3.2-19.9 0-32.9 25.5-60 57.7-62.6 4.8-28 12.5-45.1 22.7-51l33.1-179.7c5.3-28.7 30.3-49.5 59.4-49.5 18 0 34.9 7.9 46.4 21.8 11.5 13.8 16.2 31.9 13 49.6l-9.3 50.6c-1 5.4-6.2 9-11.6 8-5.4-1-9-6.2-8-11.6l9.3-50.6c2.2-11.8-1-23.9-8.7-33.2-7.7-9.2-19-14.6-31.1-14.6-19.5 0-36.2 13.9-39.7 33.1l-32 173.7h82.2l13.9-75.4c1-5.4 6.2-9 11.6-8 5.4 1 9 6.2 8 11.6L348.4 285l309-95c7.2-4.2 14.7-6.4 22.3-6.4 12.1 0 30.3 5.6 47.9 32.5 12.3 18.7 22.5 45.3 29.8 76.9 1.2 5.4-2.1 10.7-7.5 12-5.4 1.2-10.7-2.1-12-7.5-13-57-35.9-93.8-58.2-93.8-4.3 0-8.6 1.4-13 4.1-10.9 6.8-21 20.9-29.5 40.3 0 0.1-0.1 0.1-0.1 0.2-0.5 1.1-1 2.3-1.5 3.5-0.3 0.6-0.5 1.3-0.8 1.9-0.8 1.9-1.5 3.8-2.2 5.7-0.4 1.1-0.8 2.1-1.2 3.2-0.3 0.9-0.7 1.8-1 2.8-0.3 1-0.7 2-1 3-0.4 1.1-0.7 2.2-1.1 3.3-0.3 1-0.6 2.1-1 3.1-6 19.7-10.6 42.6-13.6 67.6H653c16.8 0 32.5 6.4 44.3 17.9 11.9 11.7 18.5 27.3 18.5 44.1 0 34.6-28.2 62.8-62.8 62.8h-39.2c0.9 7.7 2 15.3 3.2 22.6 0.9 5.4-2.7 10.6-8.2 11.5-5.5 0.9-10.6-2.7-11.5-8.2-1.9-11-3.4-22.4-4.5-34-0.1-0.3-0.1-0.6-0.1-1-1.6-17.3-2.5-35.1-2.5-53v-0.4c0-18.2 0.9-36.3 2.5-53.8 3.7-38 11.3-72.8 21.9-100.7v-0.1c0.5-1.3 1-2.5 1.5-3.8l0.3-0.9 1.5-3.6c0.1-0.2 0.2-0.5 0.3-0.7 0.5-1.1 1-2.2 1.4-3.2 0.1-0.2 0.2-0.4 0.2-0.5 0.5-1.2 1.1-2.3 1.6-3.4 0.1-0.3 0.3-0.5 0.4-0.8 0.5-1.1 1.1-2.2 1.7-3.3 0.1-0.1 0.1-0.2 0.2-0.4 0.5-1 1-2 1.6-3 0.1-0.2 0.2-0.4 0.4-0.7 0.6-1 1.1-2 1.7-3 0.1-0.2 0.2-0.4 0.4-0.6 0.6-1 1.1-1.9 1.7-2.8 0-0.1 0.1-0.1 0.1-0.2l-285.3 87.7c-1.5 1.1-3.2 1.9-5.2 2-0.5 0.4-1.1 1.1-1.9 2.4-2.4 3.8-5.8 11.6-8.9 25.8-4 18.6-6.2 42.4-6.2 67.1 0 24.7 2.2 48.7 6.2 67.4 3.4 15.8 7.2 23.9 9.6 27.3 0.6 0.8 1.1 1.2 1.4 1.5 1.1 0.3 2 0.7 2.9 1.3l287.4 88.4c-0.1-0.1-0.1-0.2-0.2-0.3-0.6-0.9-1.1-1.9-1.7-2.8 0-0.1-0.1-0.1-0.1-0.2-0.6-1-1.1-2-1.7-3l-0.3-0.6c-0.6-1-1.1-2.1-1.7-3.1 0-0.1-0.1-0.2-0.1-0.3l-1.5-3c-0.1-0.2-0.2-0.4-0.3-0.7-0.5-1.1-1-2.2-1.6-3.3l-0.3-0.6c-0.5-1-0.9-2.1-1.4-3.1-0.1-0.2-0.2-0.4-0.2-0.5-0.5-1.2-1-2.3-1.5-3.5-0.1-0.3-0.2-0.5-0.3-0.8-0.5-1.2-1-2.5-1.5-3.7-2-5.1 0.5-10.9 5.7-13 1-0.4 2-0.6 2.9-0.7h1c3.9 0.1 7.5 2.5 9 6.4 9.4 24 21 41.3 32.9 48.7 4.3 2.7 8.7 4.1 12.9 4.1 32.8 0 69.4-82.7 69.4-201.3 0-27.4-2-54.1-5.9-79.2-0.8-5.5 2.9-10.6 8.3-11.4 0.5-0.1 1-0.1 1.6-0.1 4.8 0 9.1 3.5 9.9 8.5 4.1 26.1 6.1 53.8 6.1 82.3 0 57.6-8.5 111.9-23.9 152.9-16.5 44-39.8 68.3-65.5 68.3z m-69.3-231.9v0.4c-0.1 3.5-0.1 6.9-0.1 10.4v0.8c0 2.7 0 5.4 0.1 8 0 1.1 0 2.2 0.1 3.3 0.1 2.4 0.1 4.8 0.2 7.2 0.1 1.8 0.1 3.5 0.2 5.2 0 0.8 0.1 1.5 0.1 2.3 0.3 5.1 0.6 10.2 1 15.3H653c23.6 0 42.8-19.2 42.8-42.8 0-23.6-18.8-42-42.8-42h-41.1c-0.9 10.5-1.4 21.2-1.6 31.9z m-376.4-85c-2.6 2.2-9.5 13.7-13.9 44.7-2.2 15.4-3.4 33-3.4 50.9 0 18.2 1.2 36 3.5 51.6 4.4 29.9 11 41.4 13.6 43.9h82.2c-2.4-5.6-4.6-12.4-6.5-20.3-4.9-20.5-7.6-47.1-7.6-75.1 0-8.5 0.5-64.9 14.1-95.6h-82zM394 393.7m-16 0a16 16 0 1 1 32 0 16 16 0 1 1-32 0ZM362 367.1m-16 0a16 16 0 1 1 32 0 16 16 0 1 1-32 0ZM533.7 367.1m-16 0a16 16 0 1 1 32 0 16 16 0 1 1-32 0ZM501.7 393.7m-16 0a16 16 0 1 1 32 0 16 16 0 1 1-32 0ZM473.2 383.1h-50.6c-3.9 0-6.7-3.7-5.8-7.5 1.8-7.5 6.3-14 12.3-18.4 5.3-3.8 11.8-6.1 18.8-6.1s13.5 2.3 18.8 6.1c6.1 4.4 10.5 10.9 12.3 18.4 0.9 3.8-1.9 7.5-5.8 7.5zM447.9 367.1c-7 0-13.3-3.2-17.5-8.2-0.8-0.9-0.5-2.3 0.5-3 4.9-3.1 10.7-4.9 17-4.9 6.2 0 12.1 1.8 17 4.9 1 0.6 1.3 2 0.5 3-4.2 5-10.5 8.2-17.5 8.2z"  horiz-adv-x="1024" />

    
    <glyph glyph-name="tixing1" unicode="&#59011;" d="M576.86 384m-346.83 0a346.83 346.83 0 1 1 693.66 0 346.83 346.83 0 1 1-693.66 0ZM512 17.17c-49.51 0-97.56 9.7-142.79 28.84-43.68 18.48-82.91 44.92-116.6 78.61-33.68 33.68-60.13 72.91-78.61 116.6-19.13 45.24-28.84 93.28-28.84 142.79s9.7 97.56 28.84 142.79c18.48 43.69 44.92 82.91 78.61 116.6 33.68 33.68 72.91 60.13 116.6 78.61 45.24 19.13 93.28 28.84 142.79 28.84s97.56-9.7 142.79-28.84c43.68-18.48 82.91-44.92 116.6-78.61 33.68-33.68 60.13-72.91 78.61-116.6 19.13-45.24 28.84-93.28 28.84-142.79s-9.7-97.56-28.84-142.79c-18.48-43.69-44.92-82.91-78.61-116.6-33.68-33.68-72.91-60.13-116.6-78.61-45.23-19.14-93.28-28.84-142.79-28.84z m0 693.66c-87.3 0-169.38-34-231.11-95.73-61.73-61.72-95.72-143.8-95.72-231.1s34-169.38 95.73-231.11c61.73-61.73 143.81-95.73 231.11-95.73s169.38 34 231.11 95.73c61.73 61.73 95.73 143.81 95.73 231.11s-34 169.38-95.73 231.11C681.38 676.84 599.3 710.83 512 710.83zM910.68 581.76c-5.12 0-10.24 1.95-14.14 5.86L791.05 693.11c-7.81 7.81-7.81 20.47 0 28.28 7.81 7.81 20.47 7.81 28.28 0l105.5-105.49c7.81-7.81 7.81-20.47 0-28.28a19.943 19.943 0 0 0-14.15-5.86zM113.32 581.76c-5.12 0-10.24 1.95-14.14 5.86-7.81 7.81-7.81 20.47 0 28.28l105.49 105.49c7.81 7.81 20.47 7.81 28.28 0 7.81-7.81 7.81-20.47 0-28.28L127.46 587.62a19.937 19.937 0 0 0-14.14-5.86zM628.39 364H512c-11.05 0-20 8.95-20 20V591.56c0 11.05 8.95 20 20 20s20-8.95 20-20V404h96.39c11.05 0 20-8.95 20-20s-8.95-20-20-20zM165.17 18.6c-5.18 0-10.36 2-14.28 5.99-7.74 7.88-7.62 20.55 0.27 28.28l101.83 99.91c7.88 7.74 20.55 7.62 28.28-0.27 7.74-7.88 7.62-20.55-0.27-28.28l-101.83-99.91a19.962 19.962 0 0 0-14-5.72zM860.43 18.6c-5.05 0-10.11 1.9-14.01 5.72L744.6 124.24c-7.88 7.74-8 20.4-0.27 28.28 7.74 7.89 20.4 8 28.28 0.27l101.83-99.91c7.88-7.74 8-20.4 0.27-28.28-3.92-3.99-9.1-6-14.28-6z"  horiz-adv-x="1024" />

    
    <glyph glyph-name="clock" unicode="&#59012;" d="M225.125 74.625C140.75 147.75 90.125 260.25 90.125 384 90.125 614.625 281.375 805.875 512 805.875s421.875-191.25 421.875-421.875c0-123.75-50.625-236.25-135-309.375l50.625-67.5c11.25-11.25 5.625-28.125-5.625-39.375-11.25-11.25-28.125-5.625-39.375 5.625l-50.625 67.5c-67.5-50.625-151.875-78.75-241.875-78.75-90 0-174.375 28.125-241.875 73.125l-50.625-67.5c-11.25-11.25-28.125-16.875-39.375-5.625s-16.875 33.75-5.625 45l50.625 67.5z m50.625 28.125c5.625 0 5.625 0 0 0l11.25-5.625c61.875-50.625 140.625-78.75 225-78.75s163.125 28.125 225 78.75l5.625 5.625s5.625 0 5.625 5.625c78.75 67.5 129.375 168.75 129.375 281.25 0 202.5-163.125 365.625-365.625 365.625S146.375 586.5 146.375 384c0-112.5 50.625-213.75 129.375-281.25z m264.375 320.625l168.75-157.5c11.25-11.25 11.25-28.125 0-39.375-11.25-11.25-28.125-11.25-39.375 0L506.375 378.375 500.75 384c-11.25 5.625-16.875 16.875-16.875 28.125v168.75c0 16.875 11.25 28.125 28.125 28.125s28.125-11.25 28.125-28.125v-157.5zM118.25 676.5c0-16.875-16.875-28.125-33.75-22.5S62 670.875 62 687.75c5.625 45 28.125 78.75 56.25 106.875C146.375 817.125 174.5 834 208.25 834c16.875 0 28.125-11.25 28.125-28.125 5.625-11.25-5.625-28.125-22.5-28.125-22.5 0-39.375-11.25-61.875-28.125-16.875-16.875-28.125-39.375-33.75-73.125z m787.5 5.625c0 28.125-5.625 45-28.125 67.5-16.875 16.875-39.375 28.125-56.25 28.125-16.875 0-28.125 16.875-28.125 28.125 0 16.875 16.875 28.125 28.125 28.125 33.75-5.625 61.875-16.875 95.625-45 33.75-33.75 45-67.5 45-112.5 0-16.875-16.875-28.125-28.125-28.125S905.75 665.25 905.75 682.125z"  horiz-adv-x="1024" />

    
    <glyph glyph-name="shengri1" unicode="&#59099;" d="M690.37 682.056c16.28 0 29.52-13.004 29.895-29.187l0.008-0.706 0.001-122.828c59.31-1.213 107.135-49.175 108.097-108.526l0.015-1.825v-94.278h9.201c60.37 0 109.423-48.433 110.398-108.55l0.015-1.825v-183.957C948-30.584 898.566-80 837.587-80H200.413C139.433-80 90-30.584 90 30.374V214.331c0 60.959 49.434 110.375 110.413 110.375h9.2v94.278c0 58.011 44.771 105.57 101.656 110.032V652.163c0 16.51 13.389 29.893 29.904 29.893 16.28 0 29.52-13.004 29.895-29.187l0.009-0.706-0.001-122.804h116.87V652.163c0 16.51 13.389 29.893 29.904 29.893 16.28 0 29.52-13.004 29.895-29.187l0.008-0.706V529.36h112.713V652.163c0 16.51 13.389 29.893 29.904 29.893zM837.587 264.92H200.413c-27.949 0-50.606-22.65-50.606-50.589v-183.957c0-27.939 22.657-50.588 50.606-50.588h637.174c27.949 0 50.606 22.65 50.606 50.588v49.068H416.795c-16.515 0-29.903 13.383-29.903 29.893 0 16.273 13.008 29.51 29.197 29.885l0.706 0.008h471.398v75.103c0 27.66-22.206 50.135-49.769 50.582l-0.837 0.007zM354.501 109.672c0.184-16.272-12.674-29.655-28.858-30.212l-0.706-0.016-68.98-0.779c-16.514-0.186-30.053 13.045-30.24 29.554-0.183 16.272 12.675 29.655 28.859 30.212l0.706 0.016 68.98 0.779c16.514 0.186 30.053-13.045 30.239-29.554z m363.472 359.9H320.027c-27.67 0-50.152-22.198-50.6-49.752l-0.006-0.836-0.001-94.278h499.159v94.278c0 27.66-22.206 50.135-49.769 50.581l-0.837 0.007zM517.85 803c16.28 0 29.52-13.004 29.895-29.187l0.008-0.706v-27.155c0-16.51-13.388-29.893-29.903-29.893-16.28 0-29.52 13.004-29.895 29.187l-0.009 0.706v27.155c0 16.51 13.389 29.893 29.904 29.893z"  horiz-adv-x="1024" />

    
    <glyph glyph-name="shenhe4" unicode="&#59028;" d="M959.975 895.997L63.998 895.628v-1023.48h383.99v64.11l-319.991 0.169-0.035 895.171 768.015 0.244V512.07h63.998V895.997zM192.038 639.878H767.98v-63.905H192.038z m0-256.048l319.992-0.07v63.905H192.038z m0-191.783h191.996v63.877l-191.996 0.027z m776.647-111.094h-89.151c-14.822 0-29.937 17.926-29.937 36.122 0 14.612 4.772 24.462 17.27 31.836 42.624 24.076 63.097 63.97 63.108 111.515 0.014 53.608-30.235 102.626-79.98 121.308-91.869 34.51-178.296-33.186-178.296-121.27 0-47.748 26.152-90.27 63.564-111.805 12.7-7.81 16.814-17.065 16.814-31.584 0-18.196-15.914-36.122-29.933-36.122H632.99c-30.775 0-57.005-17.267-57.005-48.353v-32.268h447.989l0.443 24.333c-0.443 39.572-24.953 56.288-55.732 56.288z m-392.7-144.525h447.79v-64.28h-447.79z"  horiz-adv-x="1024" />

    
    <glyph glyph-name="shengri2" unicode="&#59407;" d="M512 691.2a34.133333 34.133333 0 0 0 34.133333-34.133333v-221.866667h-68.266666V657.066667a34.133333 34.133333 0 0 0 34.133333 34.133333z m0 170.666667c34.133333-42.786133 51.2-73.608533 51.2-92.450134a51.2 51.2 0 0 0-102.4 0c0 18.8416 17.066667 49.664 51.2 92.450134zM819.2 315.733333H204.8a102.4 102.4 0 0 1-102.4-102.4v-170.666666a68.266667 68.266667 0 0 1 68.266667-68.266667h682.666666a68.266667 68.266667 0 0 1 68.266667 68.266667V213.333333a102.4 102.4 0 0 1-102.4 102.4z m-614.4-68.266666h614.4a34.133333 34.133333 0 0 0 34.133333-34.133334v-170.666666H170.666667V213.333333a34.133333 34.133333 0 0 0 34.133333 34.133334zM699.733333 588.8H324.266667a102.4 102.4 0 0 1-102.4-102.4v-170.666667a68.266667 68.266667 0 0 1 68.266666-68.266666h443.733334a68.266667 68.266667 0 0 1 68.266666 68.266666V486.4a102.4 102.4 0 0 1-102.4 102.4z m-375.466666-68.266667h375.466666a34.133333 34.133333 0 0 0 34.133334-34.133333v-170.666667H290.133333V486.4a34.133333 34.133333 0 0 0 34.133334 34.133333z"  horiz-adv-x="1024" />

    
    <glyph glyph-name="j_czxx_icon_birthday" unicode="&#59013;" d="M300.373 790.187h61.44v-61.44h-61.44v61.44z m180.907 0h61.44v-61.44h-61.44v61.44z m180.907 0h61.44v-61.44h-61.44v61.44zM300.373 670.72h61.44v-211.627h-61.44V670.72z m180.907 0h61.44v-211.627h-61.44V670.72z m180.907 0h61.44v-211.627h-61.44V670.72z m0 0M904.533 8.533000000000015v389.12a93.252 93.252 0 0 1-92.16 92.16h-604.16a93.252 93.252 0 0 1-92.16-92.16v-389.12H0v-61.44h1024v61.44H904.533z m-723.626 0v389.12c0 6.827 3.413 17.067 10.24 20.48 6.826 6.827 13.653 10.24 20.48 10.24h604.16c6.826 0 17.066-3.413 20.48-10.24 6.826-6.826 10.24-13.653 10.24-20.48v-389.12h-665.6z"  horiz-adv-x="1024" />

    
    <glyph glyph-name="shenhe2" unicode="&#59015;" d="M876.85 311.15999999999997H740.33c-30.27 0-57.6 18.1-69.42 45.96l-46.72 110.13c-6.78 15.99-2.43 34.31 10.49 45.92 46.15 41.44 71.18 105.85 56.48 175.45-14.54 68.9-70.28 124.58-139.21 138.97-118.2 24.68-222.26-64.86-222.26-178.71 0-54.81 24.31-103.7 62.58-137.12 13.32-11.63 18.03-30.21 11.12-46.49l-45.88-108.15c-11.82-27.86-39.16-45.96-69.42-45.96H147.14c-20.48 0-37.08-16.6-37.08-37.08v-145.27c0-20.48 16.6-37.08 37.08-37.08h729.71c20.48 0 37.08 16.6 37.08 37.08V274.07000000000005c0.01 20.48-16.59 37.09-37.08 37.09z m-17.36-292.88H165.11c-10.21 0-18.48-8.27-18.48-18.48v-36.18c0-10.21 8.27-18.48 18.48-18.48h694.38c10.21 0 18.48 8.27 18.48 18.48V-0.20000000000004547c0 10.2-8.27 18.48-18.48 18.48z"  horiz-adv-x="1024" />

    
    <glyph glyph-name="column-4" unicode="&#58986;" d="M874.666667 778.666667H149.333333C108.8 778.666667 74.666667 744.533333 74.666667 704v-640c0-40.533333 34.133333-74.666667 74.666666-74.666667h725.333334c40.533333 0 74.666667 34.133333 74.666666 74.666667V704c0 40.533333-34.133333 74.666667-74.666666 74.666667z m-330.666667-64h128v-661.333334h-128v661.333334z m-64-661.333334h-128v661.333334h128v-661.333334z m-341.333333 10.666667V704c0 6.4 4.266667 10.666667 10.666666 10.666667h138.666667v-661.333334H149.333333c-6.4 0-10.666667 4.266667-10.666666 10.666667z m746.666666 0c0-6.4-4.266667-10.666667-10.666666-10.666667h-138.666667v661.333334H874.666667c6.4 0 10.666667-4.266667 10.666666-10.666667v-640z"  horiz-adv-x="1024" />

    
    <glyph glyph-name="qunfengguoqi" unicode="&#59254;" d="M512.002519 896C229.682508 896 0 666.317492 0 383.996231c0-282.31376 229.682508-511.996269 512.002519-511.996269 282.31001 0 511.997519 229.682508 511.997519 511.996269C1023.998787 666.317492 794.316279 896 512.002519 896L512.002519 896zM512.002519-123.228787c-279.68751 0-507.227519 227.537508-507.227519 507.225019C4.775 663.684991 232.315009 891.225 512.002519 891.225c279.68251 0 507.226269-227.540008 507.226269-507.227519C1019.228787 104.308721 791.685029-123.228787 512.002519-123.228787L512.002519-123.228787zM512.002519-123.228787M512.002519-15.811283M562.110021 411.707482l49.052502 0 0-26.171251-49.052502 0 0 26.171251ZM562.110021 452.977484l49.052502 0 0-26.176251-49.052502 0 0 26.176251ZM677.426275 476.087485l48.578752 0 0-45.986252-48.578752 0 0 45.986252ZM726.006277 368.317481l0 46.222502-48.578752 0c0.15625-20.283751-0.1175-35.688751-0.825-46.222502L726.006277 368.317481zM512.002519 807.684997c-233.622509 0-423.687516-190.063757-423.687516-423.687516 0-233.617509 190.063757-423.680016 423.687516-423.680016 233.618759 0 423.681266 190.063757 423.681266 423.680016C935.683784 617.62124 745.620027 807.684997 512.002519 807.684997zM522.495019 344.03248l22.162501 0 0 108.945004-19.336251 0L525.321269 469.012484l19.336251 0 0 28.770001 17.451251 0 0-28.770001 49.052502 0 0 29.717501 17.451251 0 0-29.717501 19.101251 0 0-16.035001-19.101251 0 0-108.945004 18.862501 0 0-16.040001-124.980005 0L522.495019 344.03248zM350.341263 456.043734l0.005 0 101.167504 0 0 45.038752 19.096251 0 0-45.038752 40.562501 0 0-17.216251-40.562501 0 0-97.861254c0-20.283751-9.74625-30.420001-29.237501-30.420001-10.22 0-22.168751 0.0725-35.845001 0.235-0.79125 6.1275-1.9675 13.20375-3.54 21.221251 12.5775-1.255 24.291251-1.885 35.136251-1.885 9.74625 0 14.546251 5.49625 14.385001 16.503751l0 92.207503-101.167504 0L350.341263 456.043734zM397.270015 357.70248c-12.89 19.655001-25.385001 37.340001-37.495001 53.063752l14.390001 10.61c17.133751-21.851251 30.258751-39.067501 39.380001-51.641252L397.270015 357.70248zM304.833761 500.141236c10.37625-11.94875 21.695001-26.567501 33.955001-43.862502-6.28875-3.775-11.87-7.54375-16.743751-11.31875-10.845 16.821251-21.303751 31.836251-31.362501 45.043752L304.833761 500.141236zM506.928769 278.002477l-69.091253-0.9425-60.371252 1.415c-27.041251 0.3125-46.928752 9.2725-59.663752 26.880001-4.39875-3.45625-13.52-13.35875-27.353751-29.711251l-9.90625 19.810001c12.1875 11.1625 21.850001 19.766251 29.008751 25.820001l0 81.005003-27.358751 0 0 16.977501 45.512502 0 0-102.226254c11.5575-13.993751 28.775001-21.186251 51.645002-21.577501l63.437502-1.18125 71.690003 2.35875C511.801269 290.346228 509.287519 284.134978 506.928769 278.002477zM533.10502 269.042477c-3.30125 3.77-7.47125 7.94-12.5 12.495 14.936251 12.735 28.770001 26.723751 41.503752 41.977502l14.385001-11.32375C560.615021 295.057478 546.15252 280.671227 533.10502 269.042477zM593.002522 312.431229l11.31875 11.5525c11.00625-8.17375 21.381251-16.431251 31.127501-24.761251l-12.5-13.4425C614.145022 294.583728 604.165022 303.471228 593.002522 312.431229zM743.457527 300.871228c0-18.548751-8.80875-27.826251-26.416251-27.826251-8.80375 0-17.446251 0.235-25.937501 0.7075-0.63 5.185-1.5775 11.23875-2.8325 18.157501 11.48-1.1025 19.731251-1.64875 24.761251-1.64875 8.6475 0 12.97375 4.32125 12.97375 12.96875l0 49.520002L675.537525 352.74998c-1.72875-34.428751-12.1825-63.041252-31.362501-85.840003-4.24375 4.405-8.96 8.80875-14.150001 13.20875 12.73875 14.618751 20.830001 29.790001 24.292501 45.512502 3.775 15.092501 5.65875 41.342502 5.65875 78.765003l0 87.723753 83.481253 0L743.457527 300.871228zM562.110021 370.443731l49.052502 0 0-26.411251-49.052502 0 0 26.411251Z"  horiz-adv-x="1024" />

    
    <glyph glyph-name="yiguoqi1" unicode="&#59006;" d="M14.576374 369.4592c8.0896 0 14.5408 6.5536 14.5408 14.5408 0 28.0576 2.56 56.2176 7.5776 83.6608C76.937974 685.568 267.401974 843.6736 489.814774 843.6736c136.704 0 265.5232-60.1088 353.3824-164.7616 5.12-6.144 14.336-6.9632 20.48-1.8432 6.144 5.12 6.9632 14.336 1.8432 20.48C772.029174 808.8576 635.120374 872.7552 489.814774 872.7552 253.373174 872.7552 50.825974 704.6144 8.125174 472.8832 2.800374 443.8016 0.035574 413.9008 0.035574 384 0.035574 376.0128 6.589174 369.4592 14.576374 369.4592zM911.395574 662.528c-2.8672 7.4752-11.1616 11.264-18.7392 8.4992l-152.6784-56.9344c2.6624 5.0176 2.2528 11.4688-1.7408 16.0768-61.7472 73.6256-152.3712 115.9168-248.5248 115.9168-156.3648 0-290.4064-111.2064-318.6688-264.4992-3.584-19.2512-5.3248-39.0144-5.3248-58.7776 0-7.9872 6.5536-14.5408 14.5408-14.5408 8.0896 0 14.5408 6.5536 14.5408 14.5408 0 18.0224 1.6384 36.0448 4.9152 53.5552 25.7024 139.4688 147.6608 240.7424 289.9968 240.7424 87.552 0 169.984-38.4 226.2016-105.472 1.6384-1.9456 3.6864-3.3792 5.9392-4.1984L9.456374 341.6064c-7.5776-2.7648-11.3664-11.1616-8.4992-18.7392 2.1504-5.8368 7.7824-9.4208 13.6192-9.4208 1.7408 0 3.3792 0.3072 5.12 0.9216l883.2 329.4208C910.371574 646.656 914.262774 654.9504 911.395574 662.528zM1023.113974 427.8272c-2.7648 7.4752-11.264 11.264-18.7392 8.4992L121.174774 107.008c-7.5776-2.7648-11.3664-11.1616-8.4992-18.7392 0.3072-0.8192 0.7168-1.6384 1.1264-2.3552-3.072-5.12-2.7648-11.8784 1.4336-16.7936 93.3888-110.4896 229.888-173.8752 374.5792-173.8752 270.0288 0 489.7792 219.2384 489.7792 488.7552 0 4.096-1.7408 7.7824-4.4032 10.4448l39.5264 14.7456C1022.089974 411.9552 1025.878774 420.352 1023.113974 427.8272zM803.670774 330.4448c-7.68-155.4432-136.9088-279.552-294.5024-279.552-80.6912 0-157.0816 32.768-212.5824 90.4192L803.670774 330.4448zM950.409974 384c0-253.44-206.6432-459.6736-460.5952-459.6736-134.144 0-260.8128 57.9584-348.4672 159.1296l125.8496 46.8992c61.5424-69.0176 149.2992-108.4416 242.0736-108.4416 177.3568 0 321.9456 143.0528 323.9936 319.5904l117.248 43.7248C950.409974 384.8192 950.409974 384.4096 950.409974 384zM222.243574 319.8976l-16.5888-6.656 40.2432-99.9424c8.192-20.2752 22.016-26.4192 41.6768-18.5344l102.4 41.0624c17.7152 7.0656 25.6 18.6368 23.552 34.7136-1.1264 8.8064-3.4816 20.1728-7.0656 34.2016-6.7584-0.7168-13.0048-1.024-18.8416-0.9216 4.096-13.5168 6.5536-24.6784 7.3728-33.3824 0.9216-8.8064-4.1984-15.4624-15.2576-19.968l-94.9248-38.0928c-11.1616-4.5056-19.1488-0.8192-23.8592 10.9568l-22.528 55.9104 115.0976 46.1824 4.7104-11.6736 16.1792 6.4512-36.0448 89.4976-154.9312-62.1568 5.7344-14.2336L328.022774 389.12l19.8656-49.3568-115.0976-46.1824L222.243574 319.8976zM425.712374 416.8704c-15.6672 10.0352-29.696 18.2272-42.0864 24.576l-8.192-12.9024c12.4928-7.4752 26.0096-16.2816 40.3456-26.4192C418.544374 406.8352 421.821174 411.7504 425.712374 416.8704zM505.789174 355.7376l9.3184 15.1552c-11.5712 7.2704-27.9552 16.9984-49.0496 29.184l-8.2944-13.312C472.816374 377.856 488.893174 367.5136 505.789174 355.7376zM563.747574 318.976l-52.1216-19.7632c-18.8416-7.168-35.2256-6.9632-49.2544 0.6144l-33.5872 83.2512-37.1712-14.9504 5.5296-13.824 22.3232 8.9088 26.624-66.048c-3.8912-7.2704-8.9088-17.408-15.1552-30.5152l14.5408-12.9024c5.9392 17.8176 10.1376 28.8768 12.5952 33.1776 16.1792-10.1376 35.328-10.9568 57.5488-2.3552l49.7664 18.6368 56.1152 23.3472c-0.1024 5.7344-0.1024 11.6736 0 17.6128L563.747574 318.976zM440.867574 406.528l82.5344 33.1776 30.3104-75.1616c3.7888-8.9088 1.6384-14.9504-6.3488-18.1248-8.8064-3.584-18.6368-6.8608-29.2864-9.9328 3.8912-6.0416 7.168-11.3664 9.8304-16.1792 11.264 4.4032 20.992 8.192 29.3888 11.5712 15.872 6.3488 20.5824 17.8176 13.9264 34.4064l-32.1536 79.7696 33.0752 13.312-5.632 14.0288-33.0752-13.312-14.7456 36.6592-15.5648-6.2464 14.7456-36.6592L435.235574 420.4544 440.867574 406.528zM713.661174 371.0976l5.8368 15.0528c-10.6496 3.584-21.9136 6.9632-33.4848 9.9328l-5.4272-13.1072C692.464374 379.392 703.523574 375.3984 713.661174 371.0976zM645.769974 327.9872c6.8608 13.7216 13.9264 30.208 21.2992 49.3568l-15.4624 4.5056c-5.4272-16.5888-12.0832-32.5632-20.0704-47.8208C637.065974 332.0832 641.878774 330.0352 645.769974 327.9872zM714.582774 426.5984l-15.36-6.144-35.7376 88.7808 15.5648 6.2464-5.2224 13.1072-15.5648-6.2464-9.728 24.1664-14.2336-5.7344 9.728-24.1664-40.0384-16.0768-9.4208 23.4496-14.2336-5.7344 9.4208-23.4496-15.7696-6.3488 5.2224-13.1072 15.7696 6.3488 35.7376-88.7808-18.1248-7.2704 5.2224-13.1072 101.9904 40.96L714.582774 426.5984zM609.110774 487.3216l40.0384 16.0768 8.6016-21.2992-40.0384-16.0768L609.110774 487.3216zM622.627574 453.7344l40.0384 16.0768 8.6016-21.2992-40.0384-16.0768L622.627574 453.7344zM644.848374 398.6432l-8.704 21.504 40.0384 16.0768 8.704-21.504L644.848374 398.6432zM785.750774 404.2752c-4.096-1.6384-11.0592-3.8912-20.7872-6.7584 3.2768-5.2224 6.0416-9.8304 8.2944-13.824 7.0656 2.3552 14.2336 5.0176 21.4016 7.8848 14.336 5.7344 18.5344 16.1792 12.3904 31.3344l-62.7712 155.7504-68.096-27.3408 28.7744-71.4752c12.288-30.5152 19.3536-52.4288 21.1968-66.048 2.3552-13.9264 0.7168-28.9792-4.9152-45.056 5.632-1.8432 10.9568-3.8912 15.872-6.144 8.192 24.8832 7.2704 51.6096-2.56 80.1792l41.1648 16.4864 16.2816-40.3456C794.864374 412.0576 792.816374 407.04 785.750774 404.2752zM695.638774 543.9488l39.6288 15.872 15.0528-37.4784-39.6288-15.872L695.638774 543.9488zM730.352374 455.8848c-2.8672 8.8064-7.68 21.504-14.5408 37.888l39.6288 15.872 15.1552-37.6832L730.352374 455.8848z"  horiz-adv-x="1025" />

    
    <glyph glyph-name="yiguoqi2" unicode="&#59229;" d="M427.843559 176.129759L61.8569 274.06985c-18.041596 5.154742-30.92845 25.773708-25.773708 43.815304l20.618966 74.743755c-12.886854-2.577371-25.773708-2.577371-38.660562-2.577371L2.577371 328.194638c-10.309483-38.660563 12.886854-77.321125 48.970046-87.630609l304.129758-82.475866c20.618967 2.577371 51.547417 7.732113 72.166384 18.041596zM523.20628 150.35605c-15.464225-5.154742-30.92845-10.309483-43.815305-7.732112-10.309483 2.577371-18.041596 12.886854-20.618966 25.773708l-25.773709 7.732113-23.196337-30.92845 365.986658-97.940092c12.886854 7.732113 28.351079 18.041596 43.815305 25.773708l-296.397646 77.321125zM61.8569 410.670505L175.261217 833.359321c5.154742 18.041596 25.773708 30.92845 43.815304 25.773709l1164.971617-311.861871c-7.732113 12.886854-7.732113 30.92845-7.732112 38.660562L273.201309 879.751997c7.732113-10.309483 18.041596-20.618967 28.351079-28.35108-20.618967 7.732113-59.279529 20.618967-79.898496 43.815305-36.083192 5.154742-72.166383-15.464225-79.898496-51.547417L28.351079 420.979988c10.309483-5.154742 20.618967-7.732113 33.505821-10.309483zM1461.369263-86.762067c-7.732113-5.154742-18.041596-7.732113-28.351079-5.154741l-443.307783 118.559058c-41.237933 7.732113-105.672204 15.464225-172.683846 10.309483l608.259517-162.374362c5.154742-2.577371 12.886854-2.577371 18.041596-2.577371 2.577371 10.309483 10.309483 25.773708 18.041595 41.237933zM1548.999872 189.016613s10.309483-7.732113 25.773708-15.464225l69.589013 265.469196c10.309483 38.660563-12.886854 77.321125-48.970046 87.630608l-208.767038 56.702158c23.196338-12.886854 69.589013-36.083192 121.13643-41.237933-12.886854-5.154742-36.083192-10.309483-56.702159-12.886854l134.023284-36.083192c18.041596-5.154742 30.92845-25.773708 25.773708-43.815304l-131.445913-492.277829c5.154742-20.618967 7.732113-46.392675 2.577371-69.589013 10.309483 10.309483 20.618967 23.196338 25.773709 38.660563l56.702158 211.344408c-18.041596 12.886854-15.464225 51.547417-15.464225 51.547417zM894.34768 299.843559c-5.154742-18.041596-10.309483-25.773708-28.351079-23.196338-18.041596 5.154742-36.083192 10.309483-56.702159 18.041596 0-12.886854 0-25.773708-2.577371-36.083192 23.196338-5.154742 41.237933-12.886854 59.27953-15.464225 33.505821-7.732113 54.124788 5.154742 61.8569 38.660563l41.237933 157.219621 61.8569-18.041596 7.732113 25.773708-59.27953 15.464225 10.309484 33.505821c-12.886854-2.577371-18.041596-5.154742-25.773709-10.309483 7.732113 7.732113 15.464225 20.618967 30.92845 30.92845l5.154742 20.618966-38.660563 10.309484-20.618966-74.743754-162.374363 43.815304-7.732112-25.773709 162.374362-43.815304-38.660562-146.910137zM778.365992 444.176325c12.886854-30.92845 25.773708-67.011642 38.660563-105.672204L850.532376 353.968346c-10.309483 25.773708-23.196338 59.279529-43.815305 103.094834l-28.351079-12.886855zM762.901767 531.806934c-12.886854 33.505821-25.773708 64.434271-36.083192 87.630608l-28.351079-10.309483c10.309483-25.773708 20.618967-56.702158 30.92845-90.207979 10.309483 5.154742 20.618967 7.732113 33.505821 12.886854zM863.41923 214.790321l-105.672204 30.92845c-38.660563 10.309483-59.279529 28.351079-77.321126 59.279529l43.815305 159.796992-77.321125 18.041596-7.732113-25.773708 48.970046-12.886855-33.505821-126.291171c-15.464225-7.732113-36.083192-15.464225-61.8569-30.92845l7.732113-36.083191c30.92845 20.618967 48.970046 33.505821 59.279529 38.660562 12.886854-36.083192 41.237933-59.279529 87.630608-72.166383l87.630609-25.773708c10.309483 5.154742 20.618967 7.732113 33.50582 7.732112 20.618967 2.577371 38.660563-15.464225 51.547417-30.92845l43.815304-10.309483c7.732113 10.309483 12.886854 18.041596 20.618967 28.351079l-121.136429 28.351079zM533.515763 408.093134c-10.309483-28.351079-20.618967-48.970046-28.351079-64.434271-10.309483-15.464225-25.773708-20.618967-48.970046-12.886854l-198.457554 51.547416c-23.196338 5.154742-30.92845 20.618967-25.773709 43.815305-12.886854 7.732113-23.196338 20.618967-23.196337 20.618966s12.886854 2.577371 30.92845 7.732113l25.773708 92.78535 239.695488-64.434271-7.732113-25.773708 33.505821-10.309484 51.547417 190.725442-322.171355 90.207979-10.309483-30.92845 288.665534-77.321125-28.35108-105.672204-239.695487 64.434271 15.464225 56.702158-33.505821 7.732113L195.880183 431.289471c-10.309483-43.815304 2.577371-69.589013 43.815305-79.898496l213.921779-56.702158c36.083192-10.309483 64.434271 0 79.898496 28.351079 7.732113 15.464225 18.041596 36.083192 30.92845 64.434271-12.886854 5.154742-23.196338 12.886854-30.92845 20.618967zM1020.638851 155.510792l18.041596-23.196338c25.773708 15.464225 51.547417 36.083192 74.743754 61.8569l-20.618967 18.041596c-23.196338-23.196338-46.392675-41.237933-72.166383-56.702158zM1244.870113 201.903467l-25.773708 7.732112 46.392675 175.261217 25.773708-7.732112 7.732113 25.773708-25.773708 7.732113 12.886854 48.970045-38.660563 10.309484-10.309483-51.547417-74.743754 20.618967 12.886854 48.970046-25.773709 7.732112-12.886854-48.970046-25.773708 7.732113-7.732113-25.773709 25.773709-7.732112-12.886854-46.392675c0-2.577371 10.309483-12.886854 20.618966-20.618967l74.743754-20.618967-10.309483-38.660562-74.743754 20.618967 2.577371 12.886854-28.351079-7.732113-18.041596-74.743754-38.660563 10.309483-7.732112-25.773708 201.034925-54.124787 7.732112 25.773708z m-61.8569 15.464225l-74.743754 20.618967 12.886854 48.970045 74.743754-20.618966-12.886854-48.970046z m36.083192 139.178025l-74.743754 20.618967 10.309483 38.660562 74.743754-20.618966-10.309483-38.660563zM1368.583913 158.088163c28.351079 7.732113 33.505821 23.196338 33.505821 23.196337l59.279529 219.076521-126.29117 33.505821-51.547417-188.148071c-28.351079-54.124788-46.392675-100.517463-82.475867-131.445913-5.154742 23.196338-15.464225 48.970046-28.351079 77.321126l-28.351079-7.732113c12.886854-30.92845 20.618967-56.702158 25.773708-79.898496l25.773708 10.309483-2.57737-2.57737 15.464225-28.35108c36.083192 28.351079 61.8569 59.279529 85.053237 121.13643l77.321125-20.618967-2.577371-25.773708z m-15.464225 244.850229l74.743755-20.618967-20.618967-74.743754-74.743754 20.618967 20.618966 74.743754zM1304.149643 225.099804l2.57737 10.309484 18.041596 64.434271 74.743754-20.618967-20.618966-74.743754-74.743754 20.618966zM1360.851801 124.582342l-5.154742-23.196338c-2.577371-12.886854-10.309483-20.618967-20.618966-18.041596-7.732113 2.577371-23.196338 0-43.815305 7.732113v-36.083192l43.815305-12.886854c23.196338-7.732113 36.083192 15.464225 43.815304 41.237933l12.886854 48.970046c-18.041596-5.154742-18.041596-7.732113-30.92845-7.732112z"  horiz-adv-x="1649" />

    
    <glyph glyph-name="daibanshixiang" unicode="&#58981;" d="M623.152508 213.630016H269.135993v-89.153122h354.016515V213.630016z m0 193.585398H269.135993v-89.301464h354.016515v89.301464z m-133.507171 191.360278H269.135993v-89.153122h220.509344v89.153122z m60.152397 178.899609H120.14199v-816.173838h652.019354V376.360423h89.18279v-428.112994a76.232595 76.232595 0 0 0-76.202926-76.099088h-677.919745a76.21776 76.21776 0 0 0-76.188092 76.099088V790.529335a76.21776 76.21776 0 0 0 76.188092 76.099087h442.635608v-89.153121z m437.39916-21.212806L853.838065 890.214689a14.166594 14.166594 0 0 1-25.218022-5.488628l-18.171809-48.952629a72.30155 72.30155 0 0 0-29.66826-33.525134l-169.109083-87.521368a16.480719 16.480719 0 0 1-4.450239-27.888164l60.523251-60.819934-99.180994-142.704331 146.442532 95.235115 69.557236-69.868753a17.266927 17.266927 0 0 1 28.704042 3.856874L906.158041 676.158192a92.965493 92.965493 0 0 0 33.287788 31.448356l43.182153 21.212806a16.065363 16.065363 0 0 1 4.568912 27.443141z"  horiz-adv-x="1024" />

    
    <glyph glyph-name="fukuan3" unicode="&#59040;" d="M533.333333 405.333333h160a32 32 0 0 1 0 64h-162.133333l158.72 158.72a32 32 0 0 1-45.269333 45.226667l-145.664-145.664L353.28 673.28a32 32 0 0 1-45.226667-45.226667L466.773333 469.333333H330.666667a32 32 0 0 1 0-64H469.333333V298.666667H330.666667a32 32 0 0 1 0-64H469.333333v-117.333334a32 32 0 1 1 64 0V234.666667h160a32 32 0 1 1 0 64H533.333333v106.666666z"  horiz-adv-x="1024" />

    
    <glyph glyph-name="fukuantongzhi" unicode="&#58983;" d="M118.4-21.5c-11.8 0-21.3 9.5-21.3 21.3V265.1c0 6.2 2.7 12 7.3 16.1L307 456.8c8.9 7.7 22.3 6.7 30-2.1 7.7-8.9 6.7-22.3-2.1-30L139.7 255.3v-255.6c0-11.7-9.5-21.2-21.3-21.2zM223.4-8.1c-6.3 0-12.5 2.8-16.7 8.1-7.3 9.2-5.7 22.6 3.6 29.9 1.6 1.2 156.7 123.4 197.9 164.6 29.3 29.3 22.2 47.8 0 70-7.8 7.8-17.4 12.6-27 13.4-7 0.6-13.4-1.1-16.7-4.4-7.8-7.8-35.1-34.9-62.4-62.1-27.8-27.6-55.8-55.4-63.5-63.1-8.3-8.3-21.8-8.3-30.1 0s-8.3 21.8 0 30.1c7.7 7.7 35.7 35.5 63.6 63.2 27.4 27.2 54.6 54.3 62.4 62 12.3 12.3 30.7 18.4 50.5 16.7 19.6-1.7 38.5-10.8 53.4-25.7 53.8-53.8 29.7-100.5 0-130.2-43-43-195.2-162.9-201.6-168-4.1-3-8.8-4.5-13.4-4.5zM863-6.9H365.3c-35.2 0-63.9 28.7-63.9 63.9 0 11.8 9.5 21.3 21.3 21.3S344 68.8 344 57c0-11.7 9.6-21.3 21.3-21.3H863c11.7 0 21.3 9.6 21.3 21.3V725.7c0 11.7-9.6 21.3-21.3 21.3H365.3c-11.7 0-21.3-9.6-21.3-21.3v-436.3c0-11.8-9.5-21.3-21.3-21.3s-21.3 9.5-21.3 21.3V725.7c0 35.2 28.7 63.9 63.9 63.9H863c35.2 0 63.9-28.7 63.9-63.9V57c0-35.2-28.7-63.9-63.9-63.9zM532.5 676.8h-126c-0.4 0-0.8-0.3-0.8-0.8v-36.4c0-0.4 0.3-0.8 0.8-0.8h126c0.4 0 0.8 0.3 0.8 0.8V676c-0.1 0.5-0.4 0.8-0.8 0.8zM322.7 589.7h582.7v-23.6H322.7zM715.8 276.7H512.5c-12.1 0-21.9 9.8-21.9 21.9 0 12.1 9.8 21.9 21.9 21.9h203.4c12.1 0 21.9-9.8 21.9-21.9 0-12-9.9-21.9-22-21.9zM715.8 193.9H512.5c-12.1 0-21.9 9.8-21.9 21.9s9.8 21.9 21.9 21.9h203.4c12.1 0 21.9-9.8 21.9-21.9s-9.9-21.9-22-21.9zM614.1 123.1c-12.1 0-21.9 9.8-21.9 21.9V352.4c0 12.1 9.8 21.9 21.9 21.9s21.9-9.8 21.9-21.9V145c0.1-12.1-9.7-21.9-21.9-21.9zM614.5 330.5c-5.5 0-11 2.1-15.3 6.2l-70.8 68.5c-8.7 8.4-8.9 22.3-0.5 31s22.3 8.9 31 0.5l70.8-68.5c8.7-8.4 8.9-22.3 0.5-31-4.2-4.5-10-6.7-15.7-6.7zM614.4 330.4c-5.7 0-11.5 2.2-15.8 6.7-8.4 8.7-8.2 22.6 0.5 31l70.9 68.6c8.7 8.4 22.6 8.2 31-0.5 8.4-8.7 8.2-22.6-0.5-31l-70.9-68.6c-4.2-4.2-9.7-6.2-15.2-6.2z"  horiz-adv-x="1024" />

    
    <glyph glyph-name="lianxi-yiguoqi" unicode="&#59134;" d="M449.625043 705.001739l37.776696 37.776696 20.48-20.48-37.798956-37.754435zM514.137043 640.356174l37.776696 37.754435 20.48-20.48-37.798956-37.754435zM483.483826 672.723478l37.754435 37.776696 20.48-20.48-37.776696-37.754435zM521.883826 813.412174l37.776696 37.776696 36.218435-36.196174-37.776696-37.798957zM607.721739 802.504348l-37.843478-37.843478c15.582609-15.582609 28.93913-28.93913 35.617391-37.843479L645.565217 766.886957l-37.843478 35.617391zM405.147826 896L0 493.078261V-128L1024 896H405.147826z m11.130435-155.826087l22.260869-22.26087 37.843479 37.843479-22.26087 22.260869 13.356522 15.582609 22.260869-22.26087 15.582609 13.356522 13.356522-13.356522-15.582609-15.582608 84.591305-84.591305 15.582608 15.582609 13.356522-13.356522-97.947826-97.947826-13.356522 13.356522 17.808696 17.808696-84.591305 84.591304-15.582608-15.582609-13.356522 13.356522 15.582609 15.582609-22.26087 22.260869 13.356522 13.356522z m-89.043478-84.591304l15.582608 15.582608 35.617392-35.617391 31.165217 31.165217 13.356522-13.356521-31.165218-31.165218 75.686957-75.686956c15.582609-15.582609 15.582609-31.165217 0-46.747826l-28.939131-28.939131c-4.452174 4.452174-11.130435 8.904348-20.034782 13.356522 11.130435 8.904348 20.034783 17.808696 28.93913 26.713044 6.678261 6.678261 6.678261 15.582609-2.226087 24.486956L373.982609 606.608696l-80.139131-80.139131-13.356521 13.356522 80.13913 80.13913-33.391304 35.617392z m71.234782-131.339131l-2.226087-22.260869c-24.486957 4.452174-48.973913 8.904348-71.234782 11.130434l2.226087 20.034783c31.165217-2.226087 55.652174-6.678261 71.234782-8.904348z m-186.991304 17.808696c17.808696-2.226087 37.843478-4.452174 60.104348-6.678261-2.226087-8.904348-4.452174-15.582609-4.452174-22.26087-22.26087 4.452174-42.295652 8.904348-60.104348 11.130435l4.452174 17.808696z m109.078261-235.965217L222.608696 208.13913c-17.808696-17.808696-37.843478-17.808696-57.878261 0l-95.721739 95.72174 15.582608 15.582608L111.304348 294.956522l111.304348 111.304348-46.747826 46.747826-133.565218-133.565218-13.356522 13.356522L178.086957 481.947826l86.817391-86.817391-15.582609-15.582609-11.130435 11.130435-111.304347-111.304348L178.086957 228.173913c11.130435-11.130435 22.26087-11.130435 33.391304 0l91.269565 91.269565c11.130435 11.130435 13.356522 20.034783 6.678261 31.165218-4.452174 8.904348-13.356522 22.26087-24.486957 35.617391 6.678261 2.226087 13.356522 6.678261 22.26087 11.130435 11.130435-15.582609 20.034783-26.713043 24.486957-35.617392 8.904348-22.26087 6.678261-40.069565-11.130435-55.652173z m169.182608 164.730434l-48.973913-46.747826c-22.26087-20.034783-44.521739-28.93913-66.782608-26.713043 0-6.678261 0-20.034783 2.226087-44.521739l-22.26087 6.67826c0 17.808696 2.226087 33.391304 2.226087 42.295653l-62.330435 62.330434-22.260869-22.260869-13.356522 13.356522 35.617391 35.617391 80.139131-80.139131c20.034783-2.226087 40.069565 6.678261 57.878261 24.486957l51.2 48.973913 53.426087 57.878261c2.226087-6.678261 6.678261-13.356522 8.904347-20.034783L489.73913 470.817391z m82.365218 69.008696h-20.034783c2.226087 22.26087 2.226087 42.295652 0 64.556522l20.034783 2.226087v-66.782609z m13.356522 80.13913v17.808696c15.582609 2.226087 28.93913 4.452174 44.521739 4.452174v-20.034783c-15.582609 0-28.93913 0-44.521739-2.226087z m106.852173 46.747826c-4.452174 4.452174-8.904348 6.678261-15.582608 11.130435 8.904348 8.904348 17.808696 13.356522 20.034782 17.808696 6.678261 6.678261 6.678261 13.356522 0 20.034783l-37.843478 37.843478-40.069565-40.069565c26.713043-28.93913 40.069565-57.878261 42.295652-91.269566h-22.260869c-2.226087 22.26087-6.678261 40.069565-15.582609 55.652174-8.904348 15.582609-28.93913 37.843478-57.878261 66.782609l-69.008696 69.008696L560.973913 878.191304l149.147826-149.147826c15.582609-15.582609 15.582609-28.93913 0-42.295652-4.452174-8.904348-11.130435-13.356522-17.808696-20.034783z"  horiz-adv-x="1024" />

    
    <glyph glyph-name="daibanshixiang1" unicode="&#58984;" d="M307.2 657.066667c-28.16 0-51.2 23.04-51.2 51.2V793.6c0 28.16 23.04 51.2 51.2 51.2s51.2-23.04 51.2-51.2v-85.333333c0-28.16-23.04-51.2-51.2-51.2zM666.026667 657.066667c-28.16 0-51.2 23.04-51.2 51.2V793.6c0 28.16 23.04 51.2 51.2 51.2s51.2-23.04 51.2-51.2v-85.333333c0-28.16-23.04-51.2-51.2-51.2zM834.56 785.066667H138.24C109.226667 785.066667 85.333333 761.173333 85.333333 732.16v-695.893333c0-29.44 23.893333-53.333333 53.333334-53.333334h695.466666c29.44 0 53.333333 23.893333 53.333334 53.333334V732.16c-0.426667 29.013333-23.893333 52.906667-52.906667 52.906667z m-125.44-407.893334l-229.12-229.12c-13.226667-13.226667-34.986667-13.226667-48.213333 0l-144.64 144.64c-13.226667 13.226667-13.226667 34.986667 0 48.213334 13.226667 13.226667 34.986667 13.226667 48.213333 0l120.746667-120.746667 205.226666 205.226667c13.226667 13.226667 34.986667 13.226667 48.213334 0 12.8-13.226667 12.8-34.986667-0.426667-48.213334z m109.226667 316.586667c-0.426667-9.813333-0.426667-23.466667-0.853334-40.106667-0.426667-14.08-0.426667-28.16-0.426666-39.253333H154.026667V711.253333c0 2.986667 2.56 5.546667 5.973333 5.546667H812.8c3.413333 0 5.973333-2.56 5.973333-5.546667-0.426667-5.12-0.426667-11.52-0.426666-17.493333z"  horiz-adv-x="1024" />

    
    <glyph glyph-name="daibanshixiang2" unicode="&#59282;" d="M896.174 832.132l-832.162-0.078v-831.693h384.075V64.27999999999997l-320.062-0.044-0.035 703.774h704.171v-320.218h64.012V832.132zM192.08 640.047h384.075v-63.919H192.08zM192.08 448.361l320.063-0.07V512.21H192.08zM192.08 320.044h192.038v63.891l-192.038 0.027zM745.221 363.376c-118.832 0-215.172-95.586-215.172-213.5s96.332-213.504 215.172-213.504c118.839 0 215.175 95.59 215.175 213.504 0 117.918-96.343 213.5-215.175 213.5z m0-362.719c-82.924 0-150.387 66.94-150.387 149.219 0 82.283 67.463 149.219 150.387 149.219 82.927 0 150.386-66.94 150.386-149.219-0.001-82.276-67.46-149.219-150.386-149.219zM704.137 94.52099999999996h128.025v63.891l-128.025 0.028zM704.137 222.452v-128.025h63.891l0.027 128.025z"  horiz-adv-x="1024" />

    
    <glyph glyph-name="yiguoqi3" unicode="&#58987;" d="M768.07168 827.553684A512.485053 512.485053 0 0 1 512.610627 896C335.296943 896 163.372733 804.378947 68.517996 640-72.686215 395.317895 11.389575 81.650526 256.07168-59.553684c77.608421-45.271579 165.995789-68.446316 255.461053-68.446316 177.313684 0 349.237895 91.621053 444.092631 256 141.204211 244.682105 57.128421 557.810526-187.553684 699.553684z m165.456842-686.618947c-134.197895-231.208421-430.618947-310.972632-662.366316-176.774737C39.414838 98.357895-39.810425 394.778947 94.387469 626.526316 228.585364 858.273684 525.006417 937.498947 756.753785 803.301053a484.648421 484.648421 0 0 0 238.214737-479.124211c-8.084211-64.673684-29.103158-127.191579-61.44-183.242105zM746.513785 790.366316a464.303158 464.303158 0 0 1-233.903158 63.056842c-162.223158 0-320.134737-84.075789-406.905263-234.442105-129.347368-224.202105-52.816842-511.461053 171.385263-640.808421a464.303158 464.303158 0 0 1 233.903158-63.056843c162.223158 0 320.134737 84.075789 406.905263 234.442106 130.425263 224.202105 53.355789 511.461053-171.385263 640.808421z m210.728421-287.258948c65.212632-245.221053-80.303158-496.909474-325.52421-562.122105C385.957996-123.688421 134.808522 21.288421 69.056943 266.509474 3.305364 511.730526 149.360101 763.418947 394.581154 829.170526c180.008421 47.966316 372.412632-17.785263 484.513684-167.073684 36.648421-47.966316 62.517895-101.322105 78.147368-158.989474zM420.639259 745.903158l26.219789 2.290526-13.123368 22.528 6.871579 25.896421-25.788632-6.898526-22.123789 13.392842-2.802526-26.381474-20.129685-17.623579 24.306527-9.674105 9.647158-24.252631 16.922947 20.749473zM257.499891 634.718316l8.08421 25.869473 23.255579 13.312-21.045895 15.279158-3.961263 26.543158-21.288421-16.357052-25.842526 3.745684 7.922526-25.114948-11.614316-24.414315 25.869474 0.619789 18.620632-19.482947zM571.355891 746.037895l24.225684-10.85979 0.107789 26.058106 18.728421 18.432-25.626947 7.329684-12.39579 22.716631-15.737263-20.776421-26.354526-4.688842 16.141474-20.533895-3.718737-25.869473 24.629895 8.192zM161.728943 475.351579l-0.269474 27.54021 18.054737 19.429053-24.791579 8.757895-11.587368 24.090947-15.090526-21.773473-25.168842-4.769685 15.36-21.935158-3.799579-27.055157 24.441263 8.892631c-0.538947-0.916211 22.878316-13.204211 22.878316-13.20421zM862.656943 313.936842l0.538948-27.082105-17.785264-18.970948 24.360421-8.461473 12.072421-24.387369 15.090527 21.800421 24.872421 4.311579-15.36 21.908211 3.799579 27.055158-24.17179-8.434527-23.417263 12.261053z m-239.696842-268.584421l-26.219789-2.290526 13.150315-22.528-6.602105-25.438316 25.492211 6.440421 22.123789-13.419789 2.802526 26.408421 20.129685 17.623579-23.821474 9.404631-9.647158 24.252632-17.408-20.48z m-207.925895-4.419368l-1.778526-25.734737-20.129684-17.623579 24.818526-8.730948 10.671158-23.578947 17.111579 19.968 26.489263 2.748632-14.874947 21.665684 5.874526 25.249684-26.246737-6.629053c1.212632-0.080842-21.935158 12.665263-21.935158 12.665264z m360.205474 123.715368l-7.814737-25.357474-22.986105-12.853894 20.587789-15.009685 3.961264-26.570105 20.803368 16.626526 25.869474-3.718736-7.922527 25.088 11.587369 24.441263-25.869474-0.61979-18.216421 17.973895zM204.440522 470.581895c44.678737 168.986947 217.788632 269.446737 386.048 224.579368 28.025263-7.491368 55.134316-18.782316 80.815158-33.603368l8.218947 4.581052C526.542417 760.077474 327.104943 712.165053 233.435891 559.642947a328.353684 328.353684 0 0 1-48.047158-181.355789l8.218947 4.581053c-0.134737 29.938526 3.072 59.203368 10.832842 87.713684zM800.219891 309.248c-44.651789-168.986947-217.788632-269.419789-386.048-224.552421a334.389895 334.389895 0 0 0-81.273264 33.845895l-7.760842-4.850527c152.710737-94.396632 352.148211-46.484211 446.086737 106.522948a328.353684 328.353684 0 0 1 48.074105 181.355789l-8.245894-4.581052c0.134737-29.965474-3.072-59.230316-10.832842-87.740632zM457.718838 677.510737c59.149474 7.545263 119.781053-3.799579 172.94821-31.393684l8.973474 4.796631c-144.437895 79.656421-325.766737 27.486316-405.423158-116.951579-24.064-42.711579-36.648421-91.459368-37.672421-140.665263l9.000421 4.769684c3.691789 142.255158 110.780632 260.904421 252.173474 279.444211zM556.858206 84.021895c-59.149474-7.545263-119.781053 3.799579-172.94821 31.393684l-8.973474-4.769684C519.374417 30.989474 700.703259 83.105684 780.35968 227.543579a307.119158 307.119158 0 0 1 37.187368 140.961684l-8.515368-5.039158c-3.233684-142.497684-110.322526-261.146947-252.173474-279.44421zM298.648522 376.239158c6.305684-11.722105 11.856842-23.659789 18.216421-34.169263l20.58779-35.543579c7.895579-13.258105 15.306105-26.273684 23.013052-38.804211l-21.234526-11.991579-8.569263 14.282106-126.005895-71.653053 36.486737-64c7.491368-16.141474 19.159579-18.539789 36.190316-8.461474l94.773894 54.218106c11.183158 5.362526 17.839158 11.479579 19.671579 17.893052 1.562947 5.928421-1.077895 18.647579-9.323789 37.726316 9.889684-0.107789 19.132632 0.808421 30.073263 2.56 6.063158-19.671579 8.353684-34.088421 6.656-42.415158-1.266526-8.623158-6.036211-15.818105-14.821053-21.342316L276.821154 101.322105c-22.770526-13.608421-38.750316-9.997474-49.071158 10.913684l-46.780632 81.758316c-3.233684 6.224842-10.752 18.027789-21.557895 34.842948l23.255579 13.338947c4.769684-8.973474 9.269895-18.432 14.309053-26.947368l125.278316 71.464421-34.304 60.227368-106.037895-60.739368c-14.740211-8.299789-31.016421-18.189474-49.313684-29.399579l-10.671158 19.240421a2048.943158 2048.943158 0 0 1 48.909474 26.51621l127.811368 73.701053z m180.897684-103.828211l-39.531789 69.524211c-15.009684-8.784842-26.273684-15.36-32.87579-20.264421l-10.64421 19.240421c6.629053 1.778526 18.809263 7.814737 36.567579 18.054737l18.243368 10.024421c4.958316-9.701053 9.647158-19.887158 15.629474-28.941474l33.414737-58.502737c27.486316-5.281684 59.526737 1.751579 95.501473 22.042948 36.001684 20.291368 63.595789 37.941895 83.348211 52.709052-0.053895-8.704 1.320421-18.189474 5.01221-29.049263l-57.23621-32.282947c-15.737263-8.973474-30.962526-16.976842-44.894316-23.875369-13.931789-6.898526-26.731789-10.725053-38.346105-11.452631a187.553684 187.553684 0 0 0-32.094316 0.458105c-10.078316 0.862316-16.114526-3.125895-18.647579-12.880842a205.877895 205.877895 0 0 1-6.117052-37.537684c-7.464421 4.311579-16.276211 6.278737-26.165895 6.386526 7.626105 30.450526 14.713263 48.154947 18.83621 56.346947zM433.924312 410.138947c-4.311579-7.464421-7.868632-14.740211-11.264-22.743579-24.737684 14.282105-42.334316 22.581895-51.900632 24.360421 3.772632 6.548211 6.898526 14.093474 9.862737 23.578948 10.617263-4.257684 28.240842-12.584421 53.301895-25.19579z m158.288842-62.140631c3.368421 3.664842 2.048 10.024421-3.637895 19.536842l-49.825684 87.282526-62.248421-35.624421c-7.248842-3.907368-14.551579-9.027368-22.608842-14.336l-9.997474 18.216421a429.002105 429.002105 0 0 1 31.151158 16.249263l54.757052 31.232a449.455158 449.455158 0 0 1-26.677894 42.172632l22.231579 12.665263c3.853474-8.434526 11.856842-23.659789 23.471158-43.41221 13.285053 7.895579 25.276632 14.659368 35.597473 21.746526l10.024421-18.216421c-10.455579-5.173895-22.905263-11.668211-36.917894-19.752421l53.894736-95.232c8.299789-14.740211 9.323789-25.923368 1.886316-33.414737-7.006316-7.814737-16.653474-15.925895-29.184-23.632842a76.234105 76.234105 0 0 1-19.994947 17.138526c15.764211 8.946526 25.007158 14.201263 28.079158 17.381053z m-110.996211 37.349052c4.446316 5.524211 8.488421 12.530526 12.126316 21.018948 24.602947-16.707368 40.798316-28.564211 49.313684-35.328-2.964211-5.12-7.733895-12.341895-13.123368-21.665684a334.470737 334.470737 0 0 1-48.316632 35.974736z m246.649263 10.051369c-1.724632-12.665263-3.179789-24.926316-5.766737-35.866948-8.892632 0.781474-16.572632 1.482105-22.393263 1.104843 3.098947 7.545263 5.632 17.300211 7.27579 28.779789 1.670737 11.479579 2.317474 22.312421 1.697684 32.013474l25.788632-0.592842c-3.098947-3.179789-5.066105-11.991579-6.602106-25.438316z m-114.526315 180.008421l20.264421 11.317895c6.682947-13.204211 12.314947-23.902316 16.896-32.148211l43.223579 24.225684a400.276211 400.276211 0 0 1-18.917053 30.82779l21.261474 11.991579c5.362526-11.183158 10.994526-21.908211 16.896-32.148211 4.742737 2.856421 9.781895 6.170947 16.545684 10.34779l9.431579-16.006737c-6.709895-2.991158-12.665263-5.766737-17.434948-8.623158l51.550316-90.73179c5.227789 2.56 10.509474 6.359579 16.545684 10.34779l9.431579-16.033684c-12.449684-6.467368-24.656842-12.503579-36.190315-19.536842l-51.738948-29.264842c-14.012632-8.084211-26.004211-14.848-35.570526-21.773474l-9.431579 16.033684c9.701053 4.958316 18.432 9.269895 26.192842 14.120421l-51.523368 90.73179c-5.982316-2.775579-11.802947-7.491368-19.590737-12.341895l-9.431579 16.006737c7.437474 3.179789 13.958737 6.898526 20.911158 10.347789a474.408421 474.408421 0 0 1-19.294316 32.309895z m139.560421-101.106526l-12.018527 21.261473-43.223579-24.225684 12.018527-21.234526 43.223579 24.198737z m6.090105-38.992843a76.530526 76.530526 0 0 1 5.712842 18.485895c12.341895-3.395368 26.085053-7.599158 43.115789-13.689263-2.56-6.602105-5.658947-14.147368-7.383579-22.501053-19.213474 9.862737-32.821895 16.464842-41.445052 17.704421z m134.063158 48.936422l-30.585263 53.76-42.496-24.010106c7.491368-16.168421 12.288-32.606316 14.416842-49.394526a158.989474 158.989474 0 0 0-2.236632-53.490526c-7.545263 3.125895-15.952842 3.610947-25.465263 2.263579 4.176842 16.896 6.117053 33.199158 4.850526 48.235789a118.891789 118.891789 0 0 1-11.264 41.957053c-5.739789 12.665263-16.626526 32.633263-32.14821 59.661473a1518.645895 1518.645895 0 0 1-39.01979 66.074948l81.030737 46.565052c6.494316-12.449684 14.336-26.947368 24.144842-44.43621l79.925895-140.719158c5.039158-8.515368 5.739789-17.003789 1.751579-22.797474-3.772632-6.548211-10.401684-12.665263-18.782316-19.671579-3.934316 7.275789-10.859789 12.503579-19.994947 17.165474 15.818105 5.793684 20.776421 12.261053 15.872 18.863158z m-159.797895 25.061052l-11.317895 20.210526-43.250526-24.198736 11.344842-20.210527 43.223579 24.17179z m-19.887158 34.492632l-12.018526 21.261473-43.223579-24.225684 12.018526-21.234526 43.223579 24.198737z m141.473684 7.949473l-22.689684 40.474948-41.498947-23.363369 22.716631-40.474947 41.498948 23.363368z m-31.258947 54.730106l-24.198737 43.223579-41.472-23.336421 24.198737-43.223579 41.498947 23.336421z"  horiz-adv-x="1024" />

    
    <glyph glyph-name="daibanshixiang3" unicode="&#58989;" d="M0 896h1024v-1024H0zM351.923732 300.06309m40.070327-40.070328l-0.002828 0.002829q40.070327-40.070327 0-80.140654l-79.866297-79.866297q-40.070327-40.070327-80.140654 0l0.002828-0.002828q-40.070327 40.070327 0 80.140654l79.866297 79.866296q40.070327 40.070327 80.140654 0ZM668.136228 375.85928C741.021966 265.847607 728.998323 116.164415 632.073782 19.239874l-39.663034-39.663034L111.578137 460.409452l39.663034 39.663033c96.927369 96.927369 246.607733 108.948184 356.619405 36.062446L591.86769 620.142045l-20.138401 20.138401c-33.137852 33.137852-33.137852 86.866654 0.002829 120.007335C604.872798 793.428461 658.6016 793.428461 691.74228 760.287781l200.546797-200.546797c33.140681-33.140681 33.140681-86.869482 0.002829-120.007335-33.140681-33.140681-86.869482-33.140681-120.010163 0l-20.135573 20.135573L668.139056 375.862108zM284.994661 428.787636a28.332 28.332 0 1 0-30.162347 47.970124c61.687996 38.78905 126.232703 41.362918 189.490475 7.396337a28.332 28.332 0 0 0-26.807832-49.921738c-45.192609 24.262248-87.983883 22.556706-132.523125-5.447551z"  horiz-adv-x="1024" />

    
    <glyph glyph-name="daibanshixiang4" unicode="&#58990;" d="M794.88-117.76H162.56a94.72 94.72 0 0 0-94.72 94.72V760.32A95.36 95.36 0 0 0 162.56 855.04h391.04a32 32 0 0 0 32-32 31.36 31.36 0 0 0-32-31.36H162.56a31.36 31.36 0 0 1-31.36-31.36v-783.36a31.36 31.36 0 0 1 31.36-31.36h632.32a31.36 31.36 0 0 1 31.36 31.36V384a32.64 32.64 0 0 0 32 32 32 32 0 0 0 31.36-32v-409.6a94.72 94.72 0 0 0-94.72-92.16zM478.72 521.6H263.04a32 32 0 0 0 0 64h215.68a32 32 0 1 0 0-64zM629.76 334.72H263.04a32 32 0 0 0 0 64h366.72a32 32 0 0 0 0-64zM629.76 148.48H263.04a32 32 0 0 0 0 64h366.72a32 32 0 0 0 0-64zM1012.48 755.2l-128 131.84a14.72 14.72 0 0 1-14.72 5.12 14.08 14.08 0 0 1-10.24-10.88l-20.48-49.28a69.12 69.12 0 0 0-29.44-32.64l-165.76-84.48a16.64 16.64 0 0 1-9.6-12.8 14.72 14.72 0 0 1 5.12-14.72l59.52-59.52L601.6 487.68l143.36 93.44L813.44 512a16 16 0 0 1 15.36-5.76 16.64 16.64 0 0 1 12.8 9.6l91.52 160.64a88.96 88.96 0 0 0 32.64 30.72l42.24 21.12a16.64 16.64 0 0 1 10.24 12.16 15.36 15.36 0 0 1-5.76 14.08z m0 0"  horiz-adv-x="1024" />

    
    <glyph glyph-name="yicixingjiuweifuwu" unicode="&#58991;" d="M1018.4704 578.048l-69.3248 216.576C940.032 823.296 910.848 844.8 881.152 844.8H141.7216c-29.5936 0-58.8288-21.5552-67.9936-50.176L4.4544 578.048C0.256 565.0432 0 538.9312 0 538.624v-591.616c0-36.864 31.5392-66.7648 70.2976-66.7648h882.3296c38.7584 0 70.2976 29.952 70.2976 66.7648V538.624c0 0.256-0.256 26.368-4.4544 39.424zM122.9312 780.4928c2.7136 8.6016 12.4928 15.5648 18.7904 15.5648H881.152c6.2976 0 16.0768-6.9632 18.8416-15.5648l68.096-212.736H54.784l68.096 212.736z m848.5888-833.4336a18.432 18.432 0 0 0-18.8928-17.92H70.2976a18.432 18.432 0 0 0-18.944 17.92V518.912h920.1664v-571.904zM570.9312 384v-340.48h-56.5248v263.168c-15.872-14.4384-35.4304-26.9312-58.7264-37.5296V332.8c40.96 24.8832 65.8432 41.9328 74.6496 51.2h40.6016z"  horiz-adv-x="1024" />

    
    <glyph glyph-name="daibanshixiang-01" unicode="&#58992;" d="M395.434667 325.802667c25.088-25.088 25.088-50.005333 0-75.093334l-74.752-74.581333c-24.917333-25.088-50.005333-25.088-74.922667 0-25.088 25.088-25.088 50.005333 0 75.093333l74.752 74.752c24.917333 24.917333 50.005333 24.917333 74.922667 0zM653.824 434.176a265.216 265.216 0 0 0-34.133333-333.653333l-37.205334-37.205334L133.12 513.365333l37.546667 37.034667a265.045333 265.045333 0 0 0 333.653333 34.133333l78.677333 78.677334L563.2 681.642667A79.36 79.36 0 0 0 676.010667 793.6l187.733333-187.733333A79.36 79.36 0 0 0 750.933333 493.909333l-18.773333 18.944-78.677333-78.677333zM295.253333 483.669333a26.453333 26.453333 0 0 0-28.16 44.885334A166.912 166.912 0 0 0 443.733333 535.552a26.453333 26.453333 0 0 0-25.088-46.762667 114.176 114.176 0 0 1-124.074666-5.12z"  horiz-adv-x="1024" />

    
    <glyph glyph-name="daibanshixiang5" unicode="&#58993;" d="M987.094857 745.313194a76.876657 76.876657 0 0 1-76.876657 76.805343h-123.872685a0.570513 0.570513 0 0 0-0.499199 0.570513v6.703531A63.612225 63.612225 0 0 1 741.203656 891.079323a61.401486 61.401486 0 0 1-77.661113-56.195552v-12.765234H360.386077V831.817262A63.469597 63.469597 0 0 1 315.814731 893.646633a61.544114 61.544114 0 0 1-77.661113-58.762862v-12.765234H113.781734A76.805343 76.805343 0 0 1 36.905077 745.313194v-796.507779a76.805343 76.805343 0 0 1 76.876657-76.805344h796.436466a76.876657 76.876657 0 0 1 76.876657 76.805344zM753.968889 389.669511l-285.256613-285.256614a25.24521 25.24521 0 0 0-35.657077 0L269.95973 267.793623a25.316524 25.316524 0 0 0 35.657077 35.657076L450.527167 158.469026l267.642017 267.356761a25.316524 25.316524 0 0 0 35.657077-35.657077z m151.542576 325.477796v-55.838982a38.367015 38.367015 0 0 0-38.367014-38.438329h-710.288968a38.438329 38.438329 0 0 0-38.438329 38.438329V735.543155a8.201128 8.201128 0 0 0 7.630615 7.630614h112.105849v-7.915871a63.113026 63.113026 0 0 1 44.143461-60.973601 61.544114 61.544114 0 0 1 78.445569 58.691548v10.197924h302.799895v-7.701928a63.255654 63.255654 0 0 1 44.214775-61.187544 61.4728 61.4728 0 0 1 78.445569 56.124239v12.765233h112.034535a7.5593 7.5593 0 0 0 7.630614-7.630614z"  horiz-adv-x="1024" />

    
    <glyph glyph-name="warning" unicode="&#58970;" d="M999.328 19.213l-415.774 786.738c-9.992 16.896-28.118 28.048-48.849 28.048s-38.858-11.153-48.706-27.787l-415.917-787c-4.897-8.2-7.793-18.087-7.793-28.65 0-31.138 25.161-56.398 56.258-56.562h831.563c0.133-0.001 0.29-0.002 0.447-0.002 31.239 0 56.563 25.324 56.563 56.563 0 10.563-2.895 20.45-7.937 28.91zM534.337 613.492c40.402 0 94.761-47.748 80.804-146.917l-38.932-197.603c-1.141-22.269-18.928-40.035-41.103-41.137-22.303 1.14-40.070 18.928-41.169 41.102l-44.81 204.248c-2.527 8.918-3.98 19.16-3.98 29.74 0 53.998 37.834 99.16 88.438 110.424zM534.337-24.861c-56.797 0-102.842 46.044-102.842 102.842s46.044 102.842 102.842 102.842c56.797 0 102.842-46.044 102.842-102.842-2.033-55.195-47.27-99.169-102.775-99.169-0.023 0-0.046 0-0.069 0z"  horiz-adv-x="1024" />

    
    <glyph glyph-name="jinggao" unicode="&#58973;" d="M961.369-124.986H141.063c-55.01 0-99.202 21.701-121.272 59.552-22.076 37.85-19.39 87.293 7.396 135.606l413.89 746.48c26.941 48.666 67.004 76.561 109.866 76.561 42.867 0 82.89-27.86 109.907-76.483l414.323-746.635c26.78-48.314 29.55-97.72 7.433-135.565-22.035-37.85-66.263-59.516-121.237-59.516zM550.984 814.852c-13.628 0-29.239-13.595-41.894-36.362L95.202 31.933c-12.968-23.43-16.004-44.475-8.258-57.752 7.753-13.244 27.488-20.85 54.119-20.85h820.306c26.673 0 46.372 7.565 54.119 20.85 7.704 13.242 4.71 34.28-8.293 57.71l-414.318 746.6c-12.618 22.766-28.306 36.361-41.893 36.361z m0.233-586.348c-21.488 0-38.93 17.516-38.93 39.182v352.63c0 21.63 17.442 39.183 38.93 39.183 21.492 0 38.934-17.554 38.934-39.183v-352.63c0-21.666-17.442-39.182-38.934-39.182z m-0.279-191.523c33.503 0 60.663 27.382 60.663 61.16 0 33.777-27.16 61.159-60.663 61.159s-60.663-27.382-60.663-61.16c0-33.777 27.16-61.16 60.663-61.16z"  horiz-adv-x="1104" />

    
    <glyph glyph-name="baojingxiaoxi" unicode="&#59048;" d="M512.196875 804.01875c15.975 0 28.9125-12.9375 28.9125-28.96875v-115.81875a28.96875 28.96875 0 1 0-57.9375 0V775.05A29.1375 29.1375 0 0 0 512.196875 804.01875zM302.159375 24h419.9625V294a209.98125 209.98125 0 1 1-419.9625 0v-270z m479.98125 0h150.075a30.0375 30.0375 0 0 0 0-60.01875H92.178125a29.98125 29.98125 0 1 0 0 60.01875H242.196875V294a270 270 0 0 0 539.94375 0v-270z m-3.6 701.60625a28.96875 28.96875 0 0 0 8.49375-39.99375l-63-97.14375a28.96875 28.96875 0 0 0-48.6 31.55625l63.1125 97.14375a28.96875 28.96875 0 0 0 39.99375 8.4375z m180.9-208.6875a28.96875 28.96875 0 0 0-14.0625-38.41875l-104.79375-48.9375a28.96875 28.96875 0 0 0-24.525 52.48125l104.90625 48.9375a29.025 29.025 0 0 0 38.475-14.0625z m-894.54375 0a28.9125 28.9125 0 0 0 38.475 14.0625l105.01875-48.9375a29.08125 29.08125 0 0 0 4.21875-50.00625 28.85625 28.85625 0 0 0-28.8-2.41875L78.959375 478.5a29.08125 29.08125 0 0 0-14.0625 38.41875z m180.95625 208.6875a28.8 28.8 0 0 0 40.05-8.49375l63-97.14375a28.96875 28.96875 0 1 0-48.65625-31.44375L237.359375 685.6125a28.8 28.8 0 0 0 8.60625 39.99375h-0.1125z m0 0"  horiz-adv-x="1024" />

    
    <glyph glyph-name="alert" unicode="&#58974;" d="M193 100c0-17.7 14.3-32 32-32h574c17.7 0 32 14.3 32 32V333c0 176.2-142.8 319-319 319S193 509.2 193 333v-233z m72 233c0 136.4 110.6 247 247 247s247-110.6 247-247v-193H404V311c0 5.5-4.5 10-10 10h-44c-5.5 0-10-4.5-10-10v-171h-75V333z m-48.1 252.5l39.6 39.6c3.1 3.1 3.1 8.2 0 11.3l-67.9 67.9c-3.1 3.1-8.2 3.1-11.3 0l-39.6-39.6c-3.1-3.1-3.1-8.2 0-11.3l67.9-67.9c3.1-3.1 8.1-3.1 11.3 0z m669.6 79.2l-39.6 39.6c-3.1 3.1-8.2 3.1-11.3 0l-67.9-67.9c-3.1-3.1-3.1-8.2 0-11.3l39.6-39.6c3.1-3.1 8.2-3.1 11.3 0l67.9 67.9c3.1 3.2 3.1 8.2 0 11.3zM832 4H192c-17.7 0-32-14.3-32-32v-24c0-4.4 3.6-8 8-8h688c4.4 0 8 3.6 8 8v24c0 17.7-14.3 32-32 32zM484 716h56c4.4 0 8 3.6 8 8V820c0 4.4-3.6 8-8 8h-56c-4.4 0-8-3.6-8-8v-96c0-4.4 3.6-8 8-8z"  horiz-adv-x="1024" />

    
    <glyph glyph-name="baojing" unicode="&#58976;" d="M837.818182-58.181818H186.181818V407.272727c0 179.2 146.618182 325.818182 325.818182 325.818182s325.818182-146.618182 325.818182-325.818182v-465.454545z m-605.090909 46.545454h558.545454V407.272727c0 153.6-125.672727 279.272727-279.272727 279.272728s-279.272727-125.672727-279.272727-279.272728v-418.909091zM81.454545-11.636364h837.818182v-46.545454h-837.818182zM521.309091 97.745455l-39.563636 20.945454 86.10909 172.218182h-186.181818l121.018182 239.709091 39.563636-20.945455-86.10909-172.218182h186.181818zM477.090909 896h46.545455v-116.363636h-46.545455zM28.392727 517.585455l13.032728 44.683636 111.70909-32.581818-13.032727-44.683637zM849.92 529.710545l111.709091 32.628364 13.032727-44.683636-111.709091-32.628364zM716.846545 711.726545l73.774546 89.972364L826.647273 772.189091l-73.774546-89.972364zM174.126545 772.119273L210.571636 801.047273l72.401455-91.112728-36.445091-28.951272z"  horiz-adv-x="1024" />

    
    <glyph glyph-name="baojing1" unicode="&#58977;" d="M577.463954-50.834286c20.114286 0 36.425143-16.237714 36.425143-36.352v-4.388571a36.352 36.352 0 0 0-36.425143-36.425143h-130.925714a36.352 36.352 0 0 0-36.425143 36.352v4.388571c0 20.187429 16.310857 36.425143 36.425143 36.425143h130.925714zM512.001097 896c75.044571 0 135.826286-57.344 135.826286-128l0.073143-23.990857c139.117714-51.2 237.714286-178.761143 237.714285-328.045714l-0.073142-334.482286h63.488c21.211429 0 38.4-17.188571 38.4-38.4v-4.681143c0-21.211429-17.188571-38.4-38.4-38.4H74.972526A38.4 38.4 0 0 0 36.572526 38.4v4.681143c0 21.211429 17.188571 38.4 38.4 38.4h63.414857V415.963429c0 149.211429 98.596571 276.772571 237.714286 328.045714V768C376.174811 838.656 437.029669 896 512.001097 896z m0-211.602286c-151.990857 0-284.086857-120.32-284.086857-268.8l-0.073143-334.116571h571.026286V415.597714c0 148.48-134.875429 268.8-286.866286 268.8z m0 140.8c-37.522286 0-61.586286-21.869714-61.586286-57.197714h0.073143v-4.754286a398.628571 398.628571 0 0 0 123.684572-0.073143l-0.073143 4.827429c0 35.328-24.576 57.197714-62.098286 57.197714z"  horiz-adv-x="1024" />

    
    <glyph glyph-name="jinggao1" unicode="&#58978;" d="M512-128A512 512 0 1 0 512 896a512 512 0 0 0 0-1024zM512 810.642286a426.642286 426.642286 0 1 1 0-853.284572A426.642286 426.642286 0 0 1 512 810.642286zM512 668.525714c26.185143 0 47.396571-22.454857 47.396571-50.249143v-301.129142c0-27.794286-21.211429-50.176-47.396571-50.176-26.185143 0-47.396571 22.454857-47.396571 50.176V618.276571c0 27.721143 21.211429 50.176 47.396571 50.176z m0-468.553143c26.185143 0 47.396571-22.528 47.396571-50.102857 0-27.794286-21.211429-50.322286-47.396571-50.322285-26.185143 0-47.396571 22.528-47.396571 50.249142 0 27.721143 21.211429 50.249143 47.396571 50.249143z"  horiz-adv-x="1024" />

    
    <glyph glyph-name="yanchi" unicode="&#58965;" d="M831.34464 690.61632c93.00992-98.16576 135.53664-230.12352 120.3968-364.21632-12.75904-113.03424-74.56768-216.3712-161.18784-288.36864-183.59808-152.61696-460.8512-120.09984-615.65952 55.76192C38.88128 248.2944 35.62496 481.50016 153.93792 646.3232c131.89632 183.74656 390.61504 230.85056 583.65952 118.66112 28.60544-16.62464 54.36416 27.63264 25.84064 44.2112C542.07488 937.84064 260.87936 876.53888 109.72672 672.16384c-140.20096-189.57312-116.15232-459.25888 42.39872-629.42208 160.21504-171.94496 429.34784-201.3952 626.21696-76.416 208.61952 132.43904 282.14272 403.5584 181.41184 626.432-22.4256 49.60768-54.86592 94.64832-92.2112 134.06208-22.74304 24.0128-58.89024-12.25728-36.1984-36.20352zM390.71744 472.6016c41.85088 1.52576 58.12736-20.92544 48.82432-67.42528-6.21056-34.10944-26.37312-81.37728-60.45184-141.824l-2.32448-4.64896c43.37664-52.7104 102.2976-79.04768 176.70144-79.04768h204.60032c13.952 0 21.68832-6.97344 23.24992-20.92544-1.5616-15.47264-9.29792-23.24992-23.24992-23.24992h-202.27584c-86.82496-1.52576-155.01312 25.5744-204.60032 81.37728-27.89888-34.10944-55.79776-61.21472-83.70176-81.37728-12.42624-7.74144-23.24992-6.17472-32.54784 4.64896-7.77728 12.42624-6.21056 24.04864 4.64896 34.87744 26.3424 17.03936 52.67456 44.93824 79.04768 83.70176a574.67904 574.67904 0 0 0-44.17536 111.60064c-4.64896 17.03936 0 28.66688 13.952 34.87744 15.47264 3.09248 26.3424-3.88608 32.54784-20.92544l20.92544-62.77632c1.52576-6.21056 3.09248-10.85952 4.64896-13.952 20.12672 32.54784 33.31584 64.30208 39.5264 95.32416 6.17472 18.60096 0.76288 27.10016-16.27648 25.5744H300.04224c-18.60096 0-31.0272 5.41696-37.20192 16.27648-4.64896 10.82368-1.5616 23.24992 9.29792 37.20192 9.29792 12.3904 21.68832 27.89888 37.20192 46.49984 13.952 18.60096 24.0128 31.74912 30.22336 39.5264 4.64896 6.17472 6.17472 11.62752 4.64896 16.27648-3.1232 3.09248-9.29792 4.64896-18.60096 4.64896H267.4944c-15.50848 0-23.24992 7.74144-23.24992 23.24992 0 13.952 7.74144 20.92544 23.24992 20.92544H383.744c34.0736-4.64896 40.28928-24.81152 18.60096-60.45184-7.77728-10.85952-18.60096-24.04864-32.54784-39.5264-15.50848-18.60096-25.5744-32.54784-30.22336-41.85088-4.64896-6.21056-6.21056-10.85952-4.64896-13.952 1.52576-3.1232 5.41696-4.64896 11.62752-4.64896h44.16512z m244.12672 2.32448h90.6752c15.47264-1.5616 24.0128-9.29792 25.5744-23.24992-1.5616-15.50848-10.10176-24.04864-25.5744-25.5744h-90.6752v-148.80256h106.95168c12.3904 0 19.36384-7.77728 20.92544-23.24992-1.5616-15.50848-8.53504-23.24992-20.92544-23.24992h-202.27584c-48.06144 0-71.31136 24.0128-69.75488 72.07424V498.176c1.52576 15.47264 10.06592 24.0128 25.5744 25.5744 13.952-1.5616 21.69344-10.10176 23.25504-25.5744v-195.3024c1.52576-13.952 7.74144-21.72416 18.60096-23.24992h51.1488V581.87264c-17.0752-3.1232-48.06144-6.21056-93.0048-9.29792h-16.27648c-17.0752 0-26.37312 7.74144-27.89888 23.24992 0 13.952 7.74144 21.68832 23.24992 23.24992 85.22752 1.52576 165.84192 13.14816 241.80224 34.87744 15.47264 3.08736 26.3424-1.5616 32.54784-13.952 3.09248-17.0752-2.32448-27.89888-16.27648-32.54784-43.41248-10.85952-75.96032-17.83296-97.64864-20.92544v-111.60064z"  horiz-adv-x="1024" />

    
    <glyph glyph-name="dashboard" unicode="&#59275;" d="M924.8 510.4c-22.6 53.4-54.9 101.3-96 142.4-41.1 41.1-89 73.4-142.4 96C631.1 772.2 572.5 784 512 784s-119.1-11.8-174.4-35.2c-53.4-22.6-101.3-54.9-142.4-96-41.1-41.1-73.4-89-96-142.4C75.8 455.1 64 396.5 64 336c0-132.7 58.3-257.7 159.9-343.1l1.7-1.4c5.8-4.8 13.1-7.5 20.6-7.5h531.7c7.5 0 14.8 2.7 20.6 7.5l1.7 1.4C901.7 78.3 960 203.3 960 336c0 60.5-11.9 119.1-35.2 174.4zM761.4 60H262.6C184.5 130.5 140 230.4 140 336c0 99.4 38.7 192.8 109 263 70.3 70.3 163.7 109 263 109 99.4 0 192.8-38.7 263-109 70.3-70.3 109-163.7 109-263 0-105.6-44.5-205.5-122.6-276zM623.5 474.5c-3.1 3.1-8.2 3.1-11.3 0L527.7 390c-18.7 5-39.4 0.2-54.1-14.5-21.9-21.9-21.9-57.3 0-79.2 21.9-21.9 57.3-21.9 79.2 0 14.7 14.7 19.5 35.4 14.5 54.1l84.5 84.5c3.1 3.1 3.1 8.2 0 11.3l-28.3 28.3zM490 576h44c4.4 0 8 3.6 8 8v80c0 4.4-3.6 8-8 8h-44c-4.4 0-8-3.6-8-8v-80c0-4.4 3.6-8 8-8zM750 358v-44c0-4.4 3.6-8 8-8h80c4.4 0 8 3.6 8 8v44c0 4.4-3.6 8-8 8h-80c-4.4 0-8-3.6-8-8zM762.7 555.2l-31.1 31.1c-3.1 3.1-8.2 3.1-11.3 0l-56.6-56.6c-3.1-3.1-3.1-8.2 0-11.3l31.1-31.1c3.1-3.1 8.2-3.1 11.3 0l56.6 56.6c3.1 3.1 3.1 8.2 0 11.3zM304.1 586.3c-3.1 3.1-8.2 3.1-11.3 0l-31.1-31.1c-3.1-3.1-3.1-8.2 0-11.3l56.6-56.6c3.1-3.1 8.2-3.1 11.3 0l31.1 31.1c3.1 3.1 3.1 8.2 0 11.3l-56.6 56.6zM262 366h-80c-4.4 0-8-3.6-8-8v-44c0-4.4 3.6-8 8-8h80c4.4 0 8 3.6 8 8v44c0 4.4-3.6 8-8 8z"  horiz-adv-x="1024" />

    
    <glyph glyph-name="shouye1" unicode="&#58968;" d="M524.151058 778.413733c-7.124056-5.839457-16.865341-5.887489-24.013924-0.14614l414.68321-333.106587c11.860822-9.527697 29.198307-7.636056 38.726004 4.224766 9.527697 11.860822 7.636056 29.198307-4.224766 38.726004L534.638371 821.218363c-13.164838 10.57418-32.38681 10.479138-45.411641-0.197238L74.466874 481.054148c-11.76578-9.6442-13.485733-27.00008-3.841533-38.76586 9.6442-11.76578 27.00008-13.485733 38.76586-3.841533L524.151058 778.413733zM949.321581 336.610874l-414.68321 333.106587c-13.164838 10.57418-32.38681 10.479138-45.411641-0.197238L74.466874 329.553246c-11.76578-9.6442-13.485733-27.00008-3.841533-38.76586 9.6442-11.76578 27.00008-13.485733 38.76586-3.841533l58.288287 47.777469 0-315.732311c0-45.630339 37.014228-82.607776 82.660918-82.607776L422.476647-63.616766l27.545804 0 0 27.545804 0 188.356727c0 7.615617 6.163417 13.783122 13.756551 13.783122l96.443018 0c7.5962 0 13.756551-6.164439 13.756551-13.783122l0-188.356727L573.978571-63.616766 601.523353-63.616766l172.13624 0c45.671218 0 82.660918 36.969261 82.660918 82.607776L856.320511 340.652711l58.499832-46.991585c11.860822-9.527697 29.198307-7.636056 38.726004 4.224766C963.073022 309.745693 961.182403 327.0842 949.321581 336.610874zM801.228902 18.99101c0-15.205685-12.317637-27.516168-27.569309-27.516168L629.069158-8.525158 629.069158 152.285764c0 38.035162-30.816064 68.873709-68.847138 68.873709l-96.443018 0c-38.026986 0-68.847138-30.840591-68.847138-68.873709l0-160.810922L250.340407-8.525158c-15.232255 0-27.569309 12.32479-27.569309 27.516168L222.771098 379.880495l289.404679 237.216447 289.054148-232.190467L801.229924 18.99101z"  horiz-adv-x="1024" />

    
    <glyph glyph-name="caiwuguanli" unicode="&#58963;" d="M921.6 607.914667h-819.2A102.4 102.4 0 0 1 0 505.514667v-531.114667A102.4 102.4 0 0 1 102.4-128h819.2a102.4 102.4 0 0 1 102.4 102.4V505.514667a102.4 102.4 0 0 1-102.4 102.4z m34.133333-633.514667a34.133333 34.133333 0 0 0-34.133333-34.133333h-819.2a34.133333 34.133333 0 0 0-34.133333 34.133333V505.514667a34.133333 34.133333 0 0 0 34.133333 34.133333h819.2a34.133333 34.133333 0 0 0 34.133333-34.133333zM648.533333 242.005333H546.133333V281.6h79.872a34.133333 34.133333 0 1 1 0 68.266667h-33.450666l49.152 50.517333a34.133333 34.133333 0 1 1-49.152 47.786667L512 365.568 430.762667 448.853333a34.133333 34.133333 0 0 1-49.152-47.786666l49.834666-51.2h-33.450666a34.133333 34.133333 0 1 1 0-68.266667H477.866667v-40.277333H375.466667a34.133333 34.133333 0 1 1 0-68.266667H477.866667v-119.466667a34.133333 34.133333 0 0 1 68.266666 0v120.149334h102.4a34.133333 34.133333 0 1 1 0 68.266666zM104.448 679.594667h819.2a34.133333 34.133333 0 0 1 0 68.266666h-819.2a34.133333 34.133333 0 0 1 0-68.266666zM170.666667 827.733333h682.666666a34.133333 34.133333 0 0 1 0 68.266667h-682.666666a34.133333 34.133333 0 0 1 0-68.266667z"  horiz-adv-x="1024" />

    
    <glyph glyph-name="caiwuguanli1" unicode="&#58964;" d="M960 650.666667H64c-36.266667 0-64-27.733333-64-64v-597.333334c0-36.266667 27.733333-64 64-64h896c36.266667 0 64 27.733333 64 64v597.333334c0 36.266667-27.733333 64-64 64z m21.333333-661.333334c0-12.8-8.533333-21.333333-21.333333-21.333333H64c-12.8 0-21.333333 8.533333-21.333333 21.333333v597.333334c0 12.8 8.533333 21.333333 21.333333 21.333333h896c12.8 0 21.333333-8.533333 21.333333-21.333333v-597.333334zM192 693.333333h640c10.666667 0 21.333333 10.666667 21.333333 21.333334s-8.533333 21.333333-21.333333 21.333333H192c-10.666667 0-21.333333-10.666667-21.333333-21.333333s10.666667-21.333333 21.333333-21.333334zM281.6 795.733333h462.933333c12.8 0 25.6 10.666667 25.6 25.6 0 12.8-10.666667 25.6-25.6 25.6H281.6c-12.8 0-25.6-10.666667-25.6-25.6 0-12.8 10.666667-25.6 25.6-25.6zM682.666667 445.866667c-4.266667 27.733333-19.2 42.666667-44.8 44.8-14.933333-2.133333-27.733333-8.533333-36.266667-19.2l-89.6-128-89.6 128c-8.533333 10.666667-19.2 17.066667-36.266667 19.2-27.733333-4.266667-42.666667-19.2-44.8-44.8 0-8.533333 2.133333-19.2 8.533334-25.6l76.8-108.8h-51.2c-17.066667-2.133333-27.733333-10.666667-27.733334-25.6 2.133333-14.933333 10.666667-25.6 27.733334-25.6h89.6v-40.533334h-89.6c-17.066667-2.133333-27.733333-10.666667-27.733334-25.6 2.133333-14.933333 10.666667-25.6 27.733334-25.6h89.6v-74.666666c2.133333-27.733333 17.066667-40.533333 44.8-40.533334s44.8 12.8 44.8 40.533334v74.666666h89.6c17.066667 2.133333 27.733333 10.666667 27.733333 25.6-2.133333 14.933333-10.666667 25.6-27.733333 25.6H554.666667v40.533334h89.6c17.066667 2.133333 27.733333 10.666667 27.733333 25.6-2.133333 14.933333-10.666667 25.6-27.733333 25.6h-51.2l76.8 108.8c8.533333 6.4 12.8 14.933333 12.8 25.6z"  horiz-adv-x="1024" />

    
    <glyph glyph-name="shoukuan" unicode="&#58920;" d="M343.347882 1.522935l-97.882308 0c-33.94102 0-75.265194 31.506575-75.265194 57.190537L170.20038 714.854337c0 29.218462 23.294542 52.132334 53.570079 52.132334l498.986615 0c11.462053 0 31.751145-0.027629 31.751145-52.132334L754.508219 220.174817c0-18.122753 15.291265-32.807197 33.257451-32.807197 17.966187 0 33.257451 14.684444 33.257451 32.807197L821.023122 714.854337c0 73.708745-36.9741 117.124558-98.266048 117.124558L223.77046 831.978894c-66.75845 0-118.03837-51.115168-118.03837-117.124558l0-656.141888c0-68.060095 75.982532-122.18276 139.733485-122.18276l97.882308 0c17.966187 0 32.54216 14.373359 32.54216 32.496112C375.890043-12.850423 361.314069 1.522935 343.347882 1.522935zM610.413404 672.197818c-8.475022 8.475022-22.203698 8.475022-30.677697 0L463.378629 555.841763 347.021551 672.197818c-8.475022 8.475022-22.203698 8.475022-30.677697 0s-8.475022-22.203698 0-30.677697l98.168834-98.168834-81.304747 0c-11.992125 0-21.695115-9.508561-21.695115-21.48943s9.702989-21.48943 21.695115-21.48943l109.286032 0 0-64.46829L333.207941 435.904137c-11.992125 0-21.695115-9.508561-21.695115-21.48943s9.702989-21.48943 21.695115-21.48943l109.286032 0 0-65.538669c0-11.980869 9.497305-21.695115 21.48943-21.695115s21.48943 9.714246 21.48943 21.695115l0 65.538669 108.076484 0c11.991102 0 21.695115 9.508561 21.695115 21.48943s-9.702989 21.48943-21.695115 21.48943L485.472833 435.904137l0 64.46829 108.076484 0c11.991102 0 21.695115 9.508561 21.695115 21.48943s-9.702989 21.48943-21.695115 21.48943l-81.304747 0 98.168834 98.168834C618.887402 649.99412 618.887402 663.723819 610.413404 672.197818zM885.724727 128.912277 466.603067 128.912277l55.487755 55.481615c12.71151 12.701277 12.71151 33.305547 0 46.017056s-33.305547 12.71151-46.017056 0L370.031615 124.379031c-9.484002-5.594415-15.835663-15.835663-15.835663-27.700899 0-11.208273 5.66707-20.968567 14.288424-26.730805l106.566084-106.555851c6.355755-6.355755 14.682397-9.534144 23.00904-9.534144s16.652262 3.178389 23.00904 9.534144c12.71151 12.71151 12.71151 33.31578 0 46.017056l-55.041594 55.036477 419.698804 0c17.966187 0 32.54216 14.257725 32.54216 32.234145S903.690914 128.912277 885.724727 128.912277z"  horiz-adv-x="1024" />

    
    <glyph glyph-name="yingshoukuan" unicode="&#58921;" d="M956.38978 306.121234c-3.87643 11.314957-14.496168 18.918329-26.453101 18.91833H806.955765V776.973331c0 30.834307-25.087238 55.908234-55.908234 55.908234H268.620411c-30.820996 0-55.908234-25.073928-55.908235-55.908234v-451.933767H91.313165a27.956165 27.956165 0 0 1-26.453101-18.890685 27.950022 27.950022 0 0 1 9.309165-31.148639l418.520294-325.007823a27.970499 27.970499 0 0 1 17.143936-5.868911 28.005311 28.005311 0 0 1 17.116291 5.84229l420.104244 325.007823c9.445342 7.315661 13.212216 19.832659 9.335786 31.147615z m-446.528676-298.677588L172.883037 269.131329h67.783256c15.451453 0 27.954117 12.515974 27.954118 27.954117V776.973331h482.42712V297.085446c0-15.437119 12.502664-27.954117 27.954117-27.954117h69.121474L509.861104 7.443646zM637.101381 404.602621h0.026621c15.423809 0 27.954117 12.502664 27.954117 27.926472 0 15.451453-12.502664 27.967428-27.926472 27.981762l-68.481546 0.051194 75.770585 90.266754c9.936807 11.834067 8.408146 29.455133-3.439231 39.39194-11.847377 9.936807-29.482778 8.339546-39.365319-3.439231l-89.078023-106.121618-89.102596 106.121618c-9.854896 11.779801-27.544563 13.376038-39.36532 3.425921-11.847377-9.923497-13.376038-27.557874-3.43923-39.37863l75.719391-90.181771-72.197226 0.054265h-0.027645c-15.423809 0-27.954117-12.502664-27.954117-27.926472 0-15.451453 12.502664-27.967428 27.926472-27.981762l98.626778-0.074743-0.038907-42.476907-98.533605 0.074744h-0.027645c-15.423809 0-27.954117-12.502664-27.954117-27.926473 0-15.451453 12.502664-27.967428 27.926472-27.981762l98.536676-0.074743-0.069624-75.939527c-0.026621-15.437119 12.502664-27.967428 27.927496-27.981762h0.027645c15.423809 0 27.926472 12.502664 27.954117 27.927496l0.069625 75.951813 98.534628-0.074743h0.026621c15.423809 0 27.954117 12.502664 27.954117 27.926472 0 15.451453-12.502664 27.967428-27.926472 27.981762l-98.5377 0.074744 0.038907 42.476906 98.444527-0.073719z"  horiz-adv-x="1024" />

    
    </font>
</defs>
</svg>
